<svg viewBox="0 0 32 32" width="32px" height="32px" fill="#ffffff">
<style type="text/css">
	.st0{opacity:0.6;}
</style>
<path class="st0" d="M17,25.3c-0.6-0.3-1.3-0.3-1.9,0l-4.9,2.6c-0.7,0.4-1.6,0.1-1.9-0.6c-0.1-0.3-0.2-0.6-0.1-0.9
	l0.9-5.5c0.1-0.6-0.1-1.3-0.6-1.8l-4-3.9c-0.6-0.6-0.6-1.5,0-2c0.2-0.2,0.5-0.4,0.8-0.4l5.5-0.8c0.7-0.1,1.2-0.5,1.5-1.1l2.5-5
	c0.4-0.7,1.2-1,1.9-0.7c0.3,0.1,0.5,0.4,0.7,0.7l2.5,5c0.3,0.6,0.9,1,1.5,1.1l5.5,0.8c0.8,0.1,1.3,0.8,1.2,1.6
	c0,0.3-0.2,0.6-0.4,0.8l-4,3.9c-0.5,0.5-0.7,1.1-0.6,1.8l0.9,5.5c0.1,0.8-0.4,1.5-1.2,1.7c-0.3,0.1-0.6,0-0.9-0.1L17,25.3z"/>
</svg>