<svg xmlns="http://www.w3.org/2000/svg"
    width="24" height="24"
    viewBox="0 0 24 24">
<path d="M15.9,16.8c0-0.9-0.4-1.8-1-2.5c-0.7-0.8-1.8-1.2-2.8-1.2H12c-1.1,0-2.1,0.4-2.8,1.2c-0.6,0.7-1,1.6-1,2.5
	c1.1,0.9,2.4,1.4,3.9,1.4C13.5,18.2,14.8,17.7,15.9,16.8z M12,6.5c1.7,0,3.1,1.4,3.1,3.1s-1.4,3.1-3.1,3.1s-3.1-1.4-3.1-3.1
	S10.3,6.5,12,6.5z M12,22.5c5.8,0,10.5-4.7,10.5-10.5c0-5.8-4.7-10.5-10.5-10.5C6.2,1.5,1.5,6.2,1.5,12C1.5,17.8,6.2,22.5,12,22.5z
	 M12,4c4.4,0,8,3.6,8,8c0,4.4-3.6,8-8,8c-4.4,0-8-3.6-8-8C4,7.6,7.6,4,12,4z"/>
</svg>
