<svg xmlns="http://www.w3.org/2000/svg" width="26" height="26" viewBox="0 0 24 24">
<path d="M23,10.4v9.1c0,1.1-0.9,1.9-1.9,1.9h-7.2h-0.5H6.3c-1,0-1.9-0.8-1.9-1.9v-4.4c0.6,0.2,1.3,0.3,2,0.3v4h7.1h0.5H21v-5.3h-7.1
	h-0.5h-2.8c0.8-0.6,1.5-1.3,2-2.1h0.8h0.5h7v-1.6h-3.4h-4.1c0.2-0.7,0.3-1.4,0.3-2.1h2.5H21C22.1,8.5,23,9.3,23,10.4z M1,8.1
	c0-3.1,2.5-5.5,5.5-5.5c3.1,0,5.5,2.4,5.5,5.5s-2.5,5.5-5.5,5.5C3.4,13.6,1,11.1,1,8.1z M3.7,8.5c0.3,0.7,2,2.3,2.7,3
	c1.9-1.9,2.6-2.6,2.7-3c0,0,1-1.3,0.1-2.1C9.1,6.3,8.5,5.8,7.9,5.9C7.5,6,7.1,6.3,6.8,6.7C6.7,6.7,6.6,6.8,6.4,6.8
	c-0.2,0-0.3,0-0.4-0.2C5.7,6.2,5.3,6,4.9,5.9C4.3,5.8,3.7,6.3,3.6,6.3C2.9,7,3.7,8.5,3.7,8.5z"/>
</svg>
