<svg xmlns="http://www.w3.org/2000/svg" width="24" height="24" viewBox="0 0 24 24">
<path d="M12,22.5c5.8,0,10.5-4.7,10.5-10.5S17.8,1.5,12,1.5S1.5,6.2,1.5,12S6.2,22.5,12,22.5z M12,4.7c4,0,7.3,3.2,7.3,7.3
	S16,19.3,12,19.3S4.7,16,4.7,12S8,4.7,12,4.7z M9,14.1c-0.2,0.2-0.2,0.3-0.2,0.6c0,0.2,0,0.3,0.1,0.4l0.8,1.4
	c0.2,0.2,0.4,0.4,0.7,0.4c0.2,0,0.2,0,0.4-0.1l0.1-0.1l4.8-4c0.2-0.2,0.3-0.4,0.3-0.6s-0.1-0.5-0.3-0.6l-4.8-4l-0.1-0.1
	c-0.2-0.1-0.2-0.1-0.4-0.1c-0.2,0-0.6,0.2-0.7,0.4L8.9,8.9C8.8,9,8.8,9.2,8.8,9.3c0,0.2,0.1,0.4,0.2,0.6l1.7,1.5
	c0.4,0.3,0.4,0.9,0,1.2L9,14.1z"/>
</svg>
