<svg xmlns="http://www.w3.org/2000/svg"
    width="79" height="16"
    viewBox="0 0 79 16">
<path fill="#FFFFFF" d="M9.1,11.9l0-1c-0.2,0.4-0.6,0.8-1.2,1c-0.5,0.2-1.2,0.4-1.9,0.4s-1.4-0.2-1.9-0.5C3.5,11.5,3,11,2.6,10.5
	C2.2,10,1.9,9.4,1.6,8.8C1.4,8.1,1.3,7.4,1.3,6.7c0-0.8,0.1-1.5,0.3-2.1c0.2-0.7,0.5-1.3,1-1.7c0.4-0.5,1-0.9,1.6-1.2
	c0.6-0.3,1.4-0.4,2.2-0.4c0.6,0,1.2,0.1,1.7,0.3c0.5,0.2,1,0.4,1.4,0.7c0.4,0.3,0.7,0.7,1,1.1c0.2,0.4,0.4,0.9,0.4,1.4H8.7
	c0-0.2-0.1-0.5-0.2-0.7C8.3,3.8,8.2,3.7,8,3.5C7.8,3.3,7.5,3.2,7.2,3.1C7,3,6.7,3,6.4,3C5.5,3,4.8,3.3,4.3,4
	C3.8,4.6,3.5,5.5,3.5,6.8c0,0.4,0.1,0.9,0.2,1.3C3.8,8.5,4,8.9,4.2,9.2c0.2,0.3,0.5,0.6,0.9,0.8c0.4,0.2,0.8,0.3,1.3,0.3
	c0.4,0,0.7-0.1,1-0.2c0.3-0.1,0.6-0.3,0.8-0.5c0.2-0.2,0.4-0.5,0.5-0.8C8.8,8.7,8.9,8.4,8.9,8H6.6V6.3h4.3v5.5H9.1z M15.5,12.1
	c-0.6,0-1.2-0.1-1.7-0.3c-0.5-0.2-0.9-0.5-1.2-0.8c-0.3-0.4-0.6-0.8-0.8-1.3c-0.2-0.5-0.3-1-0.3-1.6c0-0.6,0.1-1.1,0.3-1.6
	c0.2-0.5,0.4-0.9,0.8-1.3c0.3-0.4,0.8-0.6,1.2-0.8c0.5-0.2,1-0.3,1.6-0.3c0.6,0,1.1,0.1,1.6,0.3c0.5,0.2,0.9,0.5,1.2,0.8
	c0.3,0.3,0.6,0.8,0.8,1.3c0.2,0.5,0.3,1.1,0.3,1.7c0,0.6-0.1,1.2-0.3,1.7c-0.2,0.5-0.4,0.9-0.8,1.3c-0.3,0.4-0.7,0.6-1.2,0.8
	C16.6,12,16.1,12.1,15.5,12.1z M15.5,10.4c1.2,0,1.8-0.8,1.8-2.3c0-1.5-0.6-2.3-1.8-2.3S13.6,6.5,13.6,8
	C13.6,9.6,14.2,10.4,15.5,10.4z M23.8,12.1c-0.6,0-1.2-0.1-1.7-0.3c-0.5-0.2-0.9-0.5-1.2-0.8c-0.3-0.4-0.6-0.8-0.8-1.3
	c-0.2-0.5-0.3-1-0.3-1.6c0-0.6,0.1-1.1,0.3-1.6c0.2-0.5,0.4-0.9,0.8-1.3c0.3-0.4,0.8-0.6,1.2-0.8c0.5-0.2,1-0.3,1.6-0.3
	c0.6,0,1.1,0.1,1.6,0.3c0.5,0.2,0.9,0.5,1.2,0.8c0.3,0.3,0.6,0.8,0.8,1.3c0.2,0.5,0.3,1.1,0.3,1.7c0,0.6-0.1,1.2-0.3,1.7
	c-0.2,0.5-0.4,0.9-0.8,1.3c-0.3,0.4-0.7,0.6-1.2,0.8C25,12,24.4,12.1,23.8,12.1z M23.8,10.4c1.2,0,1.8-0.8,1.8-2.3
	c0-1.5-0.6-2.3-1.8-2.3C22.6,5.7,22,6.5,22,8C22,9.6,22.6,10.4,23.8,10.4z M33.8,10.8c-0.1,0.3-0.4,0.6-0.8,0.8
	c-0.4,0.2-0.8,0.3-1.3,0.3c-0.6,0-1.2-0.1-1.6-0.3c-0.4-0.2-0.8-0.5-1-0.9c-0.3-0.4-0.5-0.8-0.6-1.3c-0.1-0.5-0.2-1-0.2-1.5
	c0-0.6,0.1-1.1,0.3-1.6c0.2-0.5,0.4-0.9,0.7-1.3c0.3-0.3,0.7-0.6,1.1-0.8C30.7,4.1,31.2,4,31.6,4c1,0,1.7,0.4,2.1,1.1V4.2h2v7.7
	c0,0.6-0.1,1.1-0.3,1.5c-0.2,0.4-0.5,0.8-0.8,1.1c-0.3,0.3-0.7,0.5-1.2,0.7c-0.5,0.2-1,0.2-1.5,0.2c-0.5,0-1-0.1-1.5-0.2
	c-0.5-0.2-0.8-0.4-1.2-0.6c-0.3-0.3-0.6-0.6-0.8-1c-0.2-0.4-0.3-0.8-0.3-1.3h1.9c0,0.5,0.2,0.8,0.5,1.1c0.3,0.3,0.7,0.4,1.2,0.4
	c0.5,0,1-0.1,1.4-0.4c0.4-0.3,0.6-0.7,0.6-1.2V10.8z M32.1,10.3c0.5,0,0.9-0.2,1.2-0.6c0.3-0.4,0.5-0.9,0.5-1.5
	c0-1.6-0.6-2.5-1.7-2.5c-1.1,0-1.7,0.8-1.7,2.3c0,0.7,0.2,1.2,0.5,1.6C31.2,10.1,31.6,10.3,32.1,10.3z M36.7,11.9V1.4h2v10.4H36.7z
	 M41.4,8.6c0,0.6,0.2,1,0.5,1.4c0.3,0.3,0.7,0.5,1.2,0.5c0.3,0,0.6-0.1,0.9-0.2c0.3-0.2,0.4-0.4,0.5-0.6h2.1
	c-0.2,0.8-0.7,1.4-1.2,1.8c-0.6,0.4-1.3,0.6-2.1,0.6c-2.5,0-3.8-1.4-3.8-4.2c0-0.6,0.1-1.1,0.2-1.6c0.2-0.5,0.4-0.9,0.7-1.2
	c0.3-0.3,0.7-0.6,1.2-0.8C42,4.1,42.5,4,43.1,4c1.2,0,2.1,0.4,2.7,1.1s0.9,1.9,0.9,3.4H41.4z M44.6,7.3c0-0.3-0.1-0.5-0.1-0.7
	c-0.1-0.2-0.2-0.4-0.3-0.5c-0.1-0.1-0.3-0.2-0.5-0.3c-0.2-0.1-0.4-0.1-0.6-0.1c-0.4,0-0.8,0.1-1,0.4c-0.3,0.3-0.5,0.7-0.5,1.2H44.6z
	 M51.1,11.9V1.5h4.6c0.5,0,1,0.1,1.4,0.3c0.4,0.2,0.8,0.4,1,0.7s0.5,0.7,0.7,1.1c0.2,0.4,0.2,0.8,0.2,1.3c0,0.5-0.1,0.9-0.2,1.3
	c-0.2,0.4-0.4,0.7-0.7,1c-0.3,0.3-0.6,0.5-1,0.7c-0.4,0.2-0.9,0.2-1.4,0.2h-2.4v3.7H51.1z M55.3,6.4c0.6,0,1.1-0.1,1.3-0.4
	c0.3-0.3,0.4-0.7,0.4-1.1c0-0.4-0.1-0.8-0.4-1.1c-0.3-0.3-0.7-0.4-1.3-0.4h-2.1v3H55.3z M59.4,11.9V1.4h2v10.4H59.4z M67.1,11.9
	C67,11.7,67,11.4,67,11.2c-0.2,0.3-0.6,0.5-0.9,0.6c-0.4,0.2-0.8,0.2-1.4,0.2c-0.9,0-1.5-0.2-1.9-0.6c-0.4-0.4-0.6-0.9-0.6-1.5
	c0-0.5,0.1-1,0.3-1.3c0.2-0.3,0.4-0.6,0.7-0.8s0.7-0.3,1.1-0.4c0.4-0.1,0.9-0.2,1.4-0.2c0.5-0.1,0.8-0.2,1-0.3
	c0.2-0.1,0.3-0.3,0.3-0.6c0-0.2-0.1-0.4-0.3-0.6c-0.2-0.1-0.5-0.2-0.9-0.2c-0.5,0-0.8,0.1-1,0.3c-0.2,0.2-0.3,0.5-0.4,0.8h-1.9
	c0-0.4,0.1-0.8,0.2-1.1c0.1-0.3,0.3-0.6,0.6-0.9c0.3-0.2,0.6-0.4,1-0.6C64.6,4.1,65.1,4,65.7,4c0.6,0,1.1,0.1,1.5,0.2
	c0.4,0.1,0.8,0.3,1,0.6c0.3,0.3,0.4,0.6,0.6,0.9S69,6.6,69,7v4.8H67.1z M67,8.1c-0.1,0.1-0.3,0.2-0.5,0.2c-0.2,0.1-0.5,0.1-0.9,0.2
	c-0.6,0.1-1,0.3-1.2,0.4c-0.2,0.2-0.3,0.4-0.3,0.8c0,0.6,0.3,0.9,1,0.9c0.3,0,0.5,0,0.7-0.1c0.2-0.1,0.4-0.2,0.6-0.4
	c0.2-0.1,0.3-0.3,0.4-0.5c0.1-0.2,0.1-0.4,0.1-0.6L67,8.1z M74.7,10.9c-0.1,0.3-0.4,0.6-0.8,0.8c-0.4,0.2-0.8,0.3-1.3,0.3
	c-0.4,0-0.8-0.1-1.1-0.2c-0.3-0.1-0.6-0.3-0.9-0.6c-0.2-0.2-0.4-0.5-0.6-0.9c-0.1-0.3-0.2-0.7-0.2-1.1v-5h2v4.7c0,1,0.4,1.4,1.3,1.4
	c0.5,0,0.8-0.1,1.1-0.4c0.3-0.3,0.4-0.6,0.4-1V4.2h2v7.8c0,0.5-0.1,1-0.3,1.4c-0.2,0.4-0.4,0.8-0.7,1.1c-0.3,0.3-0.7,0.5-1.1,0.7
	c-0.4,0.2-0.9,0.2-1.4,0.2c-1.1,0-2-0.3-2.5-0.9c-0.6-0.6-0.8-1.4-0.8-2.3h1.9c0,0.5,0.1,0.8,0.4,1.1c0.3,0.3,0.7,0.4,1.2,0.4
	c0.2,0,0.4,0,0.5-0.1c0.2-0.1,0.3-0.2,0.4-0.3c0.1-0.1,0.2-0.3,0.3-0.5c0.1-0.2,0.1-0.4,0.1-0.7V10.9z"/>
</svg>
