<svg xmlns="http://www.w3.org/2000/svg" width="26" height="26" viewBox="0 0 24 24">
<path d="M23,13.1c-0.3-0.7-0.7-1.4-1.3-1.9c-0.6-0.6-1.2-1-1.9-1.3c-0.7-0.3-1.5-0.5-2.3-0.5h-11c-0.8,0-1.6,0.2-2.3,0.5
	c-0.7,0.3-1.4,0.7-1.9,1.3c-0.6,0.6-1,1.2-1.3,1.9c-0.3,0.7-0.5,1.5-0.5,2.3c0,0.8,0.2,1.6,0.5,2.3c0.3,0.7,0.7,1.4,1.3,1.9
	c0.6,0.6,1.2,1,1.9,1.3c0.7,0.3,1.5,0.5,2.3,0.5c0.9,0,1.9-0.2,2.7-0.7c0.6-0.3,1.1-0.7,1.5-1.1h2.4c0.4,0.5,1,0.8,1.5,1.1
	c0.8,0.4,1.8,0.7,2.7,0.7c0.8,0,1.6-0.2,2.3-0.5c0.7-0.3,1.4-0.7,1.9-1.3c0.6-0.6,1-1.2,1.3-1.9c0.3-0.7,0.5-1.5,0.5-2.3
	C23.5,14.7,23.3,13.9,23,13.1z M20.2,15.5c0,0.5-0.4,0.9-0.9,0.9c-0.5,0-0.9-0.4-0.9-0.9c0-0.5,0.4-0.9,0.9-0.9
	C19.8,14.6,20.2,15,20.2,15.5z M4.3,16.4c-0.2,0-0.4-0.2-0.4-0.4V15c0-0.2,0.2-0.4,0.4-0.4h1.3v-1.3c0-0.2,0.2-0.4,0.4-0.4H7
	c0.2,0,0.4,0.2,0.4,0.4v1.3h1.3c0.2,0,0.4,0.2,0.4,0.4v0.9c0,0.2-0.2,0.4-0.4,0.4H7.4v1.3c0,0.2-0.2,0.4-0.4,0.4H6.1
	c-0.2,0-0.4-0.2-0.4-0.4v-1.3H4.3z M15.7,14.6c0.5,0,0.9,0.4,0.9,0.9c0,0.5-0.4,0.9-0.9,0.9s-0.9-0.4-0.9-0.9
	C14.8,15,15.2,14.6,15.7,14.6z M17.5,16.4c0.5,0,0.9,0.4,0.9,0.9c0,0.5-0.4,0.9-0.9,0.9s-0.9-0.4-0.9-0.9
	C16.6,16.8,17,16.4,17.5,16.4z M17.5,14.6c-0.5,0-0.9-0.4-0.9-0.9c0-0.5,0.4-0.9,0.9-0.9s0.9,0.4,0.9,0.9
	C18.4,14.2,18,14.6,17.5,14.6z M11.3,8.1c0.4-1.8,2-3.2,4-3.2h4.2c1.2,0,2.1-0.8,2.4-1.9c0.1-0.3,0.4-0.6,0.7-0.6h0.1
	c0.5,0,0.8,0.4,0.7,0.9c-0.4,1.8-2,3.2-4,3.2h-4.2c-1.2,0-2.1,0.8-2.4,1.9C12.8,8.8,12.5,9,12.1,9H12C11.6,9,11.2,8.6,11.3,8.1z"/>
</svg>
