<svg xmlns="http://www.w3.org/2000/svg"
    width="436" height="173"
    viewBox="0 0 436 173">
<g>
	<path fill="#3ac965" d="M126.8,80.6c-0.6-2.6-2.6-4.2-5.3-4.2c-7.7,0-15.5,0-23.2,0c-7.7,0-15.4-0.4-23.1,0.1c-1,0.1-1.9,0.2-2.8,0.6
		c-1.8,0.8-2.5,2.8-2.5,4.6V97c0,0.6,0,1,0,1.6c0.6,1,1,0.6,2,0.6c4.8,0,9.1,0,13.7,0c1.8,0,6.8,0.3,10.8,0.4
		c-2.1,7.1-5.8,12-11.8,15.3c-12.3,7.1-24,7.1-35.2-0.6c-11.7-7.3-16.6-18-15-31.3c2-13.7,9.7-22.8,23.4-27.7c8.5-2.6,17-2,26.1,2.6
		c2,1,4.2,0.6,5.9-0.6c3.2-2.6,8.1-7.1,11.7-10.1c2.6-2,2.6-6.5,0-8.5C81.1,23.4,51.4,24,30.2,41C7.4,59.8,1.9,92.7,17.5,117.8
		c11.1,17.6,30.3,27.3,50.1,27.3c8.5,0,17-2,25.1-5.9C116.7,128.1,131,101.2,126.8,80.6z"/>
	<path fill="#758ca6" d="M247.6,66.7c0-5.3-0.8-10.3-2.6-15c-1.8-4.6-4.4-8.9-7.7-12.3c-3.4-3.6-7.5-6.3-12.1-8.3s-9.9-3-15.8-3h-43.9
		c-4.4,0-8.1,3.6-8.1,8.1v99.2c0,5.3,4.2,9.7,9.7,9.7h8.7c5.3,0,9.7-4.2,9.7-9.7v-27.5c0-2,1.6-3.6,3.6-3.6h20.2
		c5.9,0,11.1-1,15.8-2.8c4.6-1.8,8.7-4.4,12.1-7.7s6.1-7.3,7.9-11.9C246.6,77,247.6,71.9,247.6,66.7z M222.4,65.8
		c0,4.4-1.2,7.9-3.8,10.5c-2.6,2.6-6.9,4-13.1,4H189c-2,0-3.6-1.6-3.6-3.6V55.5c0-2,1.6-3.6,3.6-3.6h16.4c6.1,0,10.5,1.4,13.1,3.8
		C221.2,58.4,222.4,61.8,222.4,65.8z M307.9,34.3c-1.4-3.8-5.1-6.5-9.1-6.5H282c-4,0-7.7,2.6-9.1,6.5l-35,97.8c-1,3-0.6,6.3,1.2,8.9
		c1.8,2.6,4.8,4,7.9,4h9.1c4,0,7.9-2.6,9.1-6.5l4.9-14.1c0.6-1.4,2-2.4,3.4-2.4h32.9c1.6,0,3,1,3.6,2.6l4.2,13.7l0,0
		c1.2,4,5.1,6.9,9.3,6.9h9.7c3.2,0,6.1-1.4,7.9-4c1.8-2.6,2.2-5.9,1.2-8.7L307.9,34.3z M287.9,69.3c0.4-1.4,1.8-1.6,2-1.6
		c0.4,0,1.6,0.2,2,1.6l7.7,23.8c0.4,1.2,0.2,2.4-0.6,3.2c-0.6,1-1.8,1.4-3,1.4h-12.5c-1.2,0-2.2-0.6-3-1.6c-0.6-1-0.8-2.2-0.6-3.2
		L287.9,69.3z M426.5,40L394,100.6c-0.2,0.4-0.2,0.6-0.2,1v33.7c0,5.3-4.2,9.7-9.7,9.7h-8.7c-5.3,0-9.7-4.2-9.7-9.7v-33.9
		c0-0.4,0-0.8-0.2-1L331.7,40c-1.4-2.6-1.4-5.7,0-8.1s4-4,7.1-4h13.7c3,0,5.9,1.6,7.3,4.4l18,34.8c0.4,0.8,1.2,1.2,2,1.2
		s1.6-0.4,2-1.2l16.4-34.4c1.4-2.8,4.2-4.6,7.3-4.6H419c2.8,0,5.5,1.4,7.1,4C427.7,34.3,427.7,37.4,426.5,40z"/>
</g>
</svg>
