<svg xmlns="http://www.w3.org/2000/svg"
    width="106" height="14"
    viewBox="0 0 106 14">
<style type="text/css">
	.st0{opacity:0.5;}
</style>
<g>
	<path fill="#c8d1db" d="M8,9.8L8,9C7.8,9.4,7.4,9.6,7,9.8c-0.4,0.2-1,0.3-1.5,0.3S4.4,10,3.9,9.8c-0.5-0.2-0.9-0.6-1.2-1
		C2.4,8.4,2.1,7.9,2,7.3C1.8,6.8,1.7,6.2,1.7,5.7c0-0.6,0.1-1.2,0.3-1.7c0.2-0.5,0.4-1,0.8-1.4C3.1,2.1,3.5,1.8,4,1.6
		c0.5-0.2,1.1-0.3,1.8-0.3c0.5,0,1,0.1,1.4,0.2C7.6,1.6,8,1.8,8.3,2.1s0.6,0.5,0.8,0.9c0.2,0.3,0.3,0.7,0.3,1.1H7.7
		c0-0.2-0.1-0.4-0.2-0.5S7.2,3.2,7.1,3.1C6.9,3,6.7,2.9,6.5,2.8C6.3,2.7,6,2.7,5.8,2.7C5.1,2.7,4.5,3,4.1,3.5C3.7,4,3.5,4.8,3.5,5.7
		c0,0.3,0,0.7,0.1,1C3.7,7.1,3.8,7.4,4,7.7C4.2,8,4.5,8.2,4.7,8.4c0.3,0.2,0.6,0.3,1,0.3c0.3,0,0.5,0,0.8-0.1C6.8,8.4,7,8.3,7.2,8.1
		c0.2-0.2,0.3-0.4,0.4-0.6C7.8,7.3,7.8,7,7.8,6.8H6V5.4h3.5v4.5H8z M13.1,10c-0.5,0-0.9-0.1-1.3-0.2c-0.4-0.2-0.7-0.4-1-0.7
		c-0.3-0.3-0.5-0.6-0.6-1C10,7.7,9.9,7.2,9.9,6.8c0-0.5,0.1-0.9,0.2-1.3c0.1-0.4,0.4-0.7,0.6-1c0.3-0.3,0.6-0.5,1-0.7
		c0.4-0.2,0.8-0.2,1.3-0.2c0.5,0,0.9,0.1,1.3,0.2c0.4,0.2,0.7,0.4,1,0.7s0.5,0.6,0.6,1c0.1,0.4,0.2,0.8,0.2,1.3
		c0,0.5-0.1,0.9-0.2,1.3c-0.1,0.4-0.4,0.7-0.6,1c-0.3,0.3-0.6,0.5-1,0.7C14,9.9,13.6,10,13.1,10z M13.1,8.6c1,0,1.5-0.6,1.5-1.9
		c0-1.2-0.5-1.9-1.5-1.9s-1.5,0.6-1.5,1.9C11.6,8,12.1,8.6,13.1,8.6z M19.8,10c-0.5,0-0.9-0.1-1.3-0.2c-0.4-0.2-0.7-0.4-1-0.7
		c-0.3-0.3-0.5-0.6-0.6-1c-0.1-0.4-0.2-0.8-0.2-1.3c0-0.5,0.1-0.9,0.2-1.3c0.1-0.4,0.4-0.7,0.6-1c0.3-0.3,0.6-0.5,1-0.7
		c0.4-0.2,0.8-0.2,1.3-0.2c0.5,0,0.9,0.1,1.3,0.2c0.4,0.2,0.7,0.4,1,0.7s0.5,0.6,0.6,1C22.9,5.8,23,6.3,23,6.8
		c0,0.5-0.1,0.9-0.2,1.3c-0.1,0.4-0.4,0.7-0.6,1c-0.3,0.3-0.6,0.5-1,0.7C20.7,9.9,20.3,10,19.8,10z M19.8,8.6c1,0,1.5-0.6,1.5-1.9
		c0-1.2-0.5-1.9-1.5-1.9s-1.5,0.6-1.5,1.9C18.3,8,18.8,8.6,19.8,8.6z M27.8,9c-0.1,0.3-0.3,0.5-0.6,0.6c-0.3,0.2-0.7,0.2-1.1,0.2
		c-0.5,0-0.9-0.1-1.3-0.3c-0.3-0.2-0.6-0.4-0.8-0.7c-0.2-0.3-0.4-0.6-0.5-1c-0.1-0.4-0.1-0.8-0.1-1.2c0-0.5,0.1-0.9,0.2-1.3
		s0.3-0.7,0.6-1s0.5-0.5,0.9-0.7c0.3-0.2,0.7-0.2,1.1-0.2c0.8,0,1.3,0.3,1.7,0.9V3.7h1.6v6.2c0,0.5-0.1,0.9-0.2,1.2
		c-0.2,0.4-0.4,0.7-0.7,0.9c-0.3,0.2-0.6,0.4-1,0.5c-0.4,0.1-0.8,0.2-1.2,0.2s-0.8-0.1-1.2-0.2c-0.4-0.1-0.7-0.3-0.9-0.5
		c-0.3-0.2-0.5-0.5-0.6-0.8c-0.2-0.3-0.2-0.7-0.2-1.1h1.5c0,0.4,0.1,0.7,0.4,0.9c0.2,0.2,0.6,0.3,1,0.3c0.4,0,0.8-0.1,1.1-0.4
		c0.3-0.2,0.5-0.6,0.5-1V9z M26.5,8.6c0.4,0,0.7-0.2,1-0.5c0.3-0.3,0.4-0.7,0.4-1.2c0-1.3-0.5-2-1.4-2s-1.4,0.6-1.4,1.9
		c0,0.6,0.1,1,0.4,1.3C25.8,8.4,26.1,8.6,26.5,8.6z M30.2,9.8V1.4h1.6v8.4H30.2z M34,7.2c0,0.5,0.2,0.8,0.4,1.1
		c0.2,0.3,0.6,0.4,1,0.4c0.3,0,0.5-0.1,0.7-0.2c0.2-0.1,0.3-0.3,0.4-0.5h1.7c-0.2,0.6-0.5,1.1-1,1.5c-0.5,0.3-1,0.5-1.7,0.5
		c-2.1,0-3.1-1.1-3.1-3.4c0-0.5,0.1-0.9,0.2-1.3s0.3-0.7,0.6-1c0.3-0.3,0.6-0.5,0.9-0.6c0.4-0.1,0.8-0.2,1.3-0.2
		c1,0,1.7,0.3,2.2,0.9s0.7,1.5,0.7,2.8H34z M36.5,6.2c0-0.2,0-0.4-0.1-0.6c-0.1-0.2-0.2-0.3-0.3-0.4C36,5,35.9,4.9,35.7,4.9
		c-0.1-0.1-0.3-0.1-0.5-0.1c-0.3,0-0.6,0.1-0.8,0.4c-0.2,0.2-0.4,0.6-0.4,1H36.5z M41.8,9.8V1.5h3.7c0.4,0,0.8,0.1,1.1,0.2
		c0.3,0.1,0.6,0.3,0.8,0.6s0.4,0.5,0.5,0.9s0.2,0.7,0.2,1.1c0,0.4-0.1,0.7-0.2,1s-0.3,0.6-0.5,0.8c-0.2,0.2-0.5,0.4-0.8,0.5
		c-0.3,0.1-0.7,0.2-1.1,0.2h-1.9v3H41.8z M45.1,5.4c0.5,0,0.9-0.1,1.1-0.3c0.2-0.2,0.3-0.5,0.3-0.9c0-0.4-0.1-0.6-0.3-0.9
		C46,3.1,45.6,3,45.1,3h-1.7v2.4H45.1z M48.5,9.8V1.4h1.6v8.4H48.5z M54.6,9.8c-0.1-0.2-0.1-0.3-0.1-0.5c-0.2,0.2-0.4,0.4-0.8,0.5
		S53.1,10,52.7,10c-0.7,0-1.2-0.2-1.6-0.5c-0.3-0.3-0.5-0.7-0.5-1.2c0-0.4,0.1-0.8,0.2-1.1s0.3-0.5,0.6-0.6s0.5-0.3,0.9-0.3
		c0.3-0.1,0.7-0.1,1.1-0.2C53.9,6,54.1,6,54.3,5.9c0.1-0.1,0.2-0.3,0.2-0.5c0-0.2-0.1-0.4-0.3-0.5c-0.2-0.1-0.4-0.2-0.8-0.2
		c-0.4,0-0.6,0.1-0.8,0.3c-0.2,0.2-0.3,0.4-0.3,0.7h-1.5c0-0.3,0.1-0.6,0.2-0.9c0.1-0.3,0.3-0.5,0.5-0.7c0.2-0.2,0.5-0.3,0.8-0.4
		c0.3-0.1,0.8-0.2,1.3-0.2c0.5,0,0.9,0.1,1.2,0.2c0.3,0.1,0.6,0.3,0.8,0.5c0.2,0.2,0.4,0.5,0.4,0.8s0.1,0.6,0.1,1v3.9H54.6z
		 M54.5,6.8C54.4,6.9,54.3,7,54.2,7c-0.2,0-0.4,0.1-0.7,0.2c-0.5,0.1-0.8,0.2-1,0.4s-0.3,0.3-0.3,0.6c0,0.5,0.3,0.7,0.8,0.7
		c0.2,0,0.4,0,0.6-0.1c0.2-0.1,0.3-0.2,0.5-0.3c0.1-0.1,0.2-0.3,0.3-0.4c0.1-0.2,0.1-0.3,0.1-0.5L54.5,6.8z M60.8,9
		c-0.1,0.3-0.3,0.5-0.6,0.6s-0.6,0.2-1,0.2c-0.3,0-0.6-0.1-0.9-0.2s-0.5-0.3-0.7-0.5c-0.2-0.2-0.4-0.4-0.5-0.7S56.9,8,56.9,7.7v-4
		h1.6v3.8c0,0.8,0.3,1.2,1,1.2c0.4,0,0.7-0.1,0.9-0.3c0.2-0.2,0.3-0.5,0.3-0.8V3.7h1.6V10c0,0.4-0.1,0.8-0.2,1.2
		c-0.1,0.3-0.3,0.6-0.6,0.9c-0.3,0.2-0.6,0.4-0.9,0.5c-0.3,0.1-0.7,0.2-1.1,0.2c-0.9,0-1.6-0.2-2-0.7c-0.5-0.5-0.7-1.1-0.7-1.9h1.5
		c0,0.4,0.1,0.7,0.3,0.9c0.2,0.2,0.5,0.3,1,0.3c0.2,0,0.3,0,0.4-0.1c0.1-0.1,0.3-0.1,0.4-0.3c0.1-0.1,0.2-0.3,0.3-0.4
		c0.1-0.2,0.1-0.3,0.1-0.5V9z"/>
	<g>
		<path fill="#4285F4" d="M80.6,5.9c0-0.2-0.2-0.3-0.4-0.3c-0.6,0-1.3,0-1.9,0c-0.6,0-1.3,0-1.9,0c-0.1,0-0.2,0-0.2,0
			c-0.1,0.1-0.2,0.2-0.2,0.4v1.3c0,0,0,0.1,0,0.1c0,0.1,0.1,0,0.2,0c0.4,0,0.7,0,1.1,0c0.1,0,0.6,0,0.9,0c-0.2,0.6-0.5,1-1,1.3
			c-1,0.6-2,0.6-2.9,0c-1-0.6-1.4-1.5-1.2-2.6c0.2-1.1,0.8-1.9,1.9-2.3c0.7-0.2,1.4-0.2,2.1,0.2c0.2,0.1,0.3,0,0.5,0
			c0.3-0.2,0.7-0.6,1-0.8c0.2-0.2,0.2-0.5,0-0.7c-1.7-1.3-4.1-1.2-5.8,0.2c-1.9,1.5-2.3,4.2-1,6.3c0.9,1.4,2.5,2.2,4.1,2.2
			c0.7,0,1.4-0.2,2.1-0.5C79.8,9.8,80.9,7.6,80.6,5.9z"/>
		<path fill="#c8d1db" d="M90.5,4.7c0-0.4-0.1-0.8-0.2-1.2c-0.1-0.4-0.4-0.7-0.6-1c-0.3-0.3-0.6-0.5-1-0.7c-0.4-0.2-0.8-0.2-1.3-0.2
			h-3.6c-0.4,0-0.7,0.3-0.7,0.7v8.1c0,0.4,0.3,0.8,0.8,0.8h0.7c0.4,0,0.8-0.3,0.8-0.8V8.1c0-0.2,0.1-0.3,0.3-0.3h1.7
			c0.5,0,0.9-0.1,1.3-0.2s0.7-0.4,1-0.6c0.3-0.3,0.5-0.6,0.6-1C90.4,5.6,90.5,5.2,90.5,4.7z M88.4,4.7c0,0.4-0.1,0.6-0.3,0.9
			c-0.2,0.2-0.6,0.3-1.1,0.3h-1.3c-0.2,0-0.3-0.1-0.3-0.3V3.8c0-0.2,0.1-0.3,0.3-0.3H87c0.5,0,0.9,0.1,1.1,0.3
			C88.3,4,88.4,4.3,88.4,4.7z M95.4,2.1c-0.1-0.3-0.4-0.5-0.7-0.5h-1.4c-0.3,0-0.6,0.2-0.7,0.5l-2.9,8c-0.1,0.2,0,0.5,0.1,0.7
			c0.1,0.2,0.4,0.3,0.6,0.3h0.7c0.3,0,0.6-0.2,0.7-0.5l0.4-1.2c0-0.1,0.2-0.2,0.3-0.2h2.7c0.1,0,0.2,0.1,0.3,0.2l0.3,1.1l0,0
			c0.1,0.3,0.4,0.6,0.8,0.6h0.8c0.3,0,0.5-0.1,0.6-0.3s0.2-0.5,0.1-0.7L95.4,2.1z M93.8,4.9c0-0.1,0.1-0.1,0.2-0.1
			c0,0,0.1,0,0.2,0.1l0.6,2c0,0.1,0,0.2,0,0.3c0,0.1-0.1,0.1-0.2,0.1h-1c-0.1,0-0.2,0-0.2-0.1c0-0.1-0.1-0.2,0-0.3L93.8,4.9z
			 M105.2,2.5l-2.7,5c0,0,0,0,0,0.1v2.8c0,0.4-0.3,0.8-0.8,0.8H101c-0.4,0-0.8-0.3-0.8-0.8V7.6c0,0,0-0.1,0-0.1l-2.8-5
			c-0.1-0.2-0.1-0.5,0-0.7s0.3-0.3,0.6-0.3h1.1c0.2,0,0.5,0.1,0.6,0.4l1.5,2.8c0,0.1,0.1,0.1,0.2,0.1s0.1,0,0.2-0.1l1.3-2.8
			c0.1-0.2,0.3-0.4,0.6-0.4h1.1c0.2,0,0.4,0.1,0.6,0.3C105.3,2.1,105.3,2.3,105.2,2.5z"/>
	</g>
	<path class="st0" fill="#ffffff" d="M66.7,10.9L66.7,10.9c-0.5,0-0.9-0.4-0.9-0.9V2.2c0-0.5,0.4-0.9,0.9-0.9l0,0c0.5,0,0.9,0.4,0.9,0.9v7.8
		C67.5,10.6,67.1,10.9,66.7,10.9z"/>
</g>
</svg>
