<svg xmlns="http://www.w3.org/2000/svg"
    width="59" height="24"
    viewBox="0 0 59 24">
<g>
	<path fill="#3ac965" d="M18.6,11.2c-0.1-0.3-0.3-0.5-0.7-0.5c-1,0-2,0-3,0c-1,0-2-0.1-3,0c-0.1,0-0.3,0-0.4,0.1
		c-0.2,0.1-0.3,0.4-0.3,0.6v2c0,0.1,0,0.1,0,0.2c0.1,0.1,0.1,0.1,0.3,0.1c0.6,0,1.2,0,1.8,0c0.2,0,0.9,0,1.4,0.1
		c-0.3,0.9-0.7,1.5-1.5,2c-1.6,0.9-3.1,0.9-4.6-0.1c-1.5-0.9-2.1-2.3-1.9-4.1c0.3-1.8,1.3-3,3-3.6c1.1-0.3,2.2-0.3,3.4,0.3
		c0.3,0.1,0.5,0.1,0.8-0.1c0.4-0.3,1-0.9,1.5-1.3c0.3-0.3,0.3-0.8,0-1.1c-2.6-2-6.5-1.9-9.2,0.3c-3,2.4-3.7,6.7-1.6,9.9
		c1.4,2.3,3.9,3.5,6.5,3.5c1.1,0,2.2-0.3,3.2-0.8C17.3,17.4,19.1,13.9,18.6,11.2z"/>
	<path fill="#758ca6" d="M34.2,9.4c0-0.7-0.1-1.3-0.3-1.9c-0.2-0.6-0.6-1.2-1-1.6c-0.4-0.5-1-0.8-1.6-1.1s-1.3-0.4-2-0.4h-5.7
		c-0.6,0-1,0.5-1,1v12.9c0,0.7,0.5,1.3,1.3,1.3h1.1c0.7,0,1.3-0.5,1.3-1.3v-3.6c0-0.3,0.2-0.5,0.5-0.5h2.6c0.8,0,1.4-0.1,2-0.4
		c0.6-0.2,1.1-0.6,1.6-1c0.4-0.4,0.8-0.9,1-1.5C34.1,10.8,34.2,10.1,34.2,9.4z M31,9.3c0,0.6-0.2,1-0.5,1.4
		c-0.3,0.3-0.9,0.5-1.7,0.5h-2.1c-0.3,0-0.5-0.2-0.5-0.5V8c0-0.3,0.2-0.5,0.5-0.5h2.1c0.8,0,1.4,0.2,1.7,0.5C30.8,8.4,31,8.8,31,9.3
		z M42,5.2c-0.2-0.5-0.7-0.8-1.2-0.8h-2.2c-0.5,0-1,0.3-1.2,0.8L33,17.9c-0.1,0.4-0.1,0.8,0.2,1.2c0.2,0.3,0.6,0.5,1,0.5h1.2
		c0.5,0,1-0.3,1.2-0.8l0.6-1.8c0.1-0.2,0.3-0.3,0.4-0.3h4.3c0.2,0,0.4,0.1,0.5,0.3l0.5,1.8l0,0c0.2,0.5,0.7,0.9,1.2,0.9h1.3
		c0.4,0,0.8-0.2,1-0.5c0.2-0.3,0.3-0.8,0.2-1.1L42,5.2z M39.4,9.8c0.1-0.2,0.2-0.2,0.3-0.2c0.1,0,0.2,0,0.3,0.2l1,3.1
		c0.1,0.2,0,0.3-0.1,0.4c-0.1,0.1-0.2,0.2-0.4,0.2h-1.6c-0.2,0-0.3-0.1-0.4-0.2c-0.1-0.1-0.1-0.3-0.1-0.4L39.4,9.8z M57.4,6
		l-4.2,7.9c0,0.1,0,0.1,0,0.1v4.4c0,0.7-0.5,1.3-1.3,1.3h-1.1c-0.7,0-1.3-0.5-1.3-1.3v-4.4c0-0.1,0-0.1,0-0.1L45.1,6
		c-0.2-0.3-0.2-0.7,0-1c0.2-0.3,0.5-0.5,0.9-0.5h1.8c0.4,0,0.8,0.2,0.9,0.6l2.3,4.5c0.1,0.1,0.2,0.2,0.3,0.2c0.1,0,0.2-0.1,0.3-0.2
		L53.7,5c0.2-0.4,0.5-0.6,0.9-0.6h1.8c0.4,0,0.7,0.2,0.9,0.5C57.6,5.2,57.6,5.6,57.4,6z"/>
</g>
</svg>
