<svg xmlns="http://www.w3.org/2000/svg" width="26" height="26" viewBox="0 0 24 24">
<path d="M23,6.5C23,6.3,23,6.1,22.8,6l-2.3-1.7l1.1-1.6c0.1-0.2,0.2-0.5,0-0.7c-0.1-0.2-0.4-0.4-0.6-0.4H5.1c-0.3,0-0.5,0.1-0.6,0.4
	c-0.1,0.2-0.1,0.5,0,0.7l1.1,1.6L3.2,6C3,6.1,3,6.3,3,6.5h0v15.1c0,1.6,1.3,2.9,2.9,2.9h14.4c1.6,0,2.9-1.3,2.9-2.9L23,6.5L23,6.5z
	 M19.3,13c0,3.5-2.8,6.3-6.3,6.3S6.7,16.5,6.7,13v-2.2c0-0.7,0.6-1.2,1.2-1.2s1.2,0.6,1.2,1.2V13c0,2.1,1.7,3.8,3.8,3.8
	s3.8-1.7,3.8-3.8v-2.2c0-0.7,0.6-1.2,1.2-1.2s1.2,0.6,1.2,1.2V13z M5.8,5.8L7,4.9c0.3-0.2,0.4-0.7,0.2-1l-0.7-1h13.1l-0.7,1
	c-0.2,0.3-0.1,0.7,0.2,1l1.1,0.9H5.8z"/>
</svg>
