<svg xmlns="http://www.w3.org/2000/svg" width="26" height="26" viewBox="0 0 24 24">
<path class="st0" d="M12.1,23.4c-6.3,0-11.3-5.1-11.3-11.3S5.9,0.7,12.1,0.7S23.4,5.8,23.4,12c0,2-0.6,4-1.6,5.8
	c-0.3,0.8-1.1,1.1-1.8,0.8c-0.8-0.3-1.1-1.1-0.8-1.8c0.1-0.1,0.1-0.3,0.2-0.3c0.8-1.4,1.3-3.2,1.2-4.9c-0.3-4.7-4.2-8.3-8.9-8.1
	s-8.3,4.2-8.1,8.9s4.3,8.3,8.9,8.1c1.4-0.1,2.8-0.5,3.9-1.2c0.6-0.5,1.5-0.4,2,0.3c0.5,0.6,0.4,1.5-0.3,2c-0.1,0.1-0.3,0.2-0.3,0.2
	c-1.6,0.9-3.4,1.5-5.2,1.6H12.1z M10.6,10.6h2.9v7.1h-2.9V10.6z M12.1,6.4L12.1,6.4c0.8,0,1.4,0.7,1.4,1.4l0,0
	c0,0.8-0.7,1.4-1.4,1.4l0,0c-0.8,0-1.4-0.7-1.4-1.4l0,0C10.6,7,11.3,6.4,12.1,6.4z" fill="#ffffff"/>
</svg>
