<svg xmlns="http://www.w3.org/2000/svg" width="48" height="48" viewBox="0 0 48 48">
<path class="st0" d="M24,44.7c-11.5,0-20.6-9.3-20.6-20.6S12.7,3.3,24,3.3s20.6,9.3,20.6,20.6c0,3.7-1.1,7.3-2.9,10.6
	c-0.5,1.5-2,2-3.3,1.5c-1.5-0.5-2-2-1.5-3.3c0.2-0.2,0.2-0.5,0.4-0.5c1.5-2.6,2.4-5.8,2.2-9C39,14.6,31.9,8,23.3,8.4
	C14.7,8.7,8.1,16.1,8.5,24.6s7.9,15.2,16.3,14.8c2.6-0.2,5.1-0.9,7.1-2.2c1.1-0.9,2.7-0.7,3.7,0.5c0.9,1.1,0.7,2.7-0.5,3.7
	c-0.2,0.2-0.5,0.4-0.5,0.4c-2.9,1.6-6.2,2.7-9.5,2.9H24z M21.4,21.4h5.3v13h-5.3V21.4z M24,13.7L24,13.7c1.5,0,2.6,1.3,2.6,2.6l0,0
	c0,1.5-1.3,2.6-2.6,2.6l0,0c-1.5,0-2.6-1.3-2.6-2.6l0,0C21.4,14.8,22.5,13.7,24,13.7z" fill="#ffffff"/>
</svg>
