<svg xmlns="http://www.w3.org/2000/svg" width="26" height="26" viewBox="0 0 24 24">
<path d="M22.1,2.5H7.5c-1.1,0-2.1,0.8-2.2,1.8H3.9c-1.3,0-2.3,1.1-2.3,2.3v12.8c0,1.2,1,2.3,2.3,2.3h1.4c0.2,1.1,1.1,1.8,2.2,1.8
	h14.6c1.2,0,2.3-1,2.3-2.3V4.8C24.4,3.6,23.4,2.5,22.1,2.5z M22.8,22C20.5,22,9.3,22,7,22V6.5V4h1.4c3.9,0,12.5,0,14.5,0v15.5
	L22.8,22z M5.3,7v12H4.2V7H5.3z M19.7,12.4c-0.1-0.1-0.3-0.1-0.5-0.1l-1.6,0.5v-0.2c0-0.3-0.2-0.5-0.5-0.5h-5.9
	c-0.3,0-0.5,0.2-0.5,0.5v3.7c0,0.3,0.2,0.5,0.5,0.5H17c0.3,0,0.5-0.2,0.5-0.5V16l1.6,0.4c0.1,0,0.1,0,0.1,0c0.1,0,0.2,0,0.3-0.1
	c0.1-0.1,0.2-0.2,0.2-0.4v-3.3C19.9,12.6,19.8,12.5,19.7,12.4z M12.2,11.7c0.9,0,1.6-0.8,1.6-1.6s-0.8-1.6-1.6-1.6
	c-0.9,0-1.6,0.8-1.6,1.6S11.4,11.7,12.2,11.7z M12.2,9.5c0.2,0,0.5,0.2,0.5,0.5c0,0.3-0.2,0.5-0.5,0.5c-0.2,0-0.5-0.2-0.5-0.5
	C11.7,9.9,11.9,9.5,12.2,9.5z M15.9,11.7c0.9,0,1.6-0.8,1.6-1.6s-0.8-1.6-1.6-1.6s-1.6,0.8-1.6,1.6C14.3,10.9,15,11.7,15.9,11.7z
	 M15.9,9.5c0.2,0,0.5,0.2,0.5,0.5c0,0.3-0.2,0.5-0.5,0.5c-0.2,0-0.5-0.2-0.5-0.5C15.4,9.9,15.6,9.5,15.9,9.5z"/>
</svg>
