<svg xmlns="http://www.w3.org/2000/svg" width="26" height="26" viewBox="0 0 24 24">
<path d="M22.1,2.5H7.5c-1.1,0-2.1,0.8-2.2,1.8H3.9c-1.3,0-2.3,1.1-2.3,2.3v12.8c0,1.2,1,2.3,2.3,2.3h1.4c0.2,1.1,1.1,1.8,2.2,1.8
	h14.6c1.2,0,2.3-1,2.3-2.3V4.8C24.4,3.6,23.4,2.5,22.1,2.5z M5.3,19H4.2V7h1V19H5.3z M22.9,22.1c-2.4,0-13.6,0-16,0V6.4V3.9h1.4
	c3.9,0,12.6,0,14.6,0v15.6L22.9,22.1z M10.3,9.4c0,0,0.9,0.5,2.4,0s1.8,0.1,1.8,0.1v6.2c0,0-0.8-0.4-2.1-0.1c0,0-1.7,0.1-2.2-0.3
	C10.3,15.3,10.3,9.4,10.3,9.4z M20.2,16.5v-6.1h-0.4v5.1l-0.1,0.1c-0.1,0.2-0.5,0.4-1.7,0.4l0,0c-0.3,0-0.6,0-0.6,0l0,0l0,0
	c-0.3-0.1-0.5-0.1-0.9-0.1c-0.7,0-1,0.2-1,0.2L15,16.3l-0.1,0.1l-0.1-0.1L14.4,16c0,0-0.3-0.2-1-0.2c-0.2,0-0.5,0-0.9,0.1l0,0l0,0
	c0,0-0.3,0-0.7,0c-1.2,0-1.6-0.2-1.7-0.4l-0.1-0.1v-5H9.5v6.1 M17,9.4c-0.1,0-0.2-0.1-0.3-0.1v2.3l-0.8-0.8l-0.7,0.7V9.2
	c-0.2,0.1-0.3,0.2-0.3,0.2v6.2c0,0,0.8-0.4,2.1-0.1c0,0,1.7,0.1,2.1-0.3V9.4C19.3,9.4,18.4,10,17,9.4z"/>
</svg>
