<svg xmlns="http://www.w3.org/2000/svg" width="26" height="26" viewBox="0 0 24 24">
<path d="M18.7,15.1c0,0.9-0.8,1.5-1.8,1.5c-1,0-1.8-0.6-1.8-1.5s0.8-1.5,1.8-1.5H17v-2.7l-3.5,0.8v4.7c0,0.9-0.8,1.5-1.8,1.5
	c-1,0-1.8-0.6-1.8-1.5c0-0.9,0.8-1.5,1.8-1.5h0.1v-5C11.8,9.3,12,9,12.5,9l5.3-1.2c0.2,0,0.4,0,0.5,0.1l0,0c0.1,0.1,0.2,0.3,0.2,0.5
	L18.7,15.1z M22.1,2.5H7.5c-1.1,0-2.1,0.8-2.2,1.8H3.9c-1.3,0-2.3,1.1-2.3,2.3v12.8c0,1.2,1,2.3,2.3,2.3h1.4
	c0.2,1.1,1.1,1.8,2.2,1.8h14.6c1.2,0,2.3-1,2.3-2.3V4.8C24.4,3.6,23.4,2.5,22.1,2.5z M22.8,22C20.5,22,9.3,22,7,22V6.5V4h1.4
	c3.9,0,12.5,0,14.5,0v15.5L22.8,22z M5.3,7v12H4.2V7H5.3z"/>
</svg>
