<svg xmlns="http://www.w3.org/2000/svg" width="26" height="26" viewBox="0 0 24 24">
<g id="android_1_">
	<g>
		<g>
			<g>
				<g>
					<g>
						<path d="M18.3,13.5H13H7.7c-1.2,0-2.1,1-2.1,2.1c0,0.8,0,1.5,0.1,1.8c0.1,0.6,0.2,1.1,0.4,1.6c0.6,1.7,1.6,2.8,2.9,3.8
							c0.5,0.4,1.1,0.6,1.7,0.8c1.4,0.5,3.1,0.5,4.5,0c0.6-0.2,1.2-0.4,1.7-0.8c1.4-1,2.4-2.2,2.9-3.7c0.2-0.5,0.3-1,0.4-1.6
							c0.1-0.3,0.1-1,0.1-1.8C20.4,14.4,19.4,13.5,18.3,13.5"/>
					</g>
				</g>
				<path d="M4.5,13.8c-0.2-0.4-0.6-0.6-1.2-0.5c-0.5,0-0.9,0.3-1.1,0.8c-0.1,0.4-0.1,0.8-0.1,1.3c0,0.5,0,1,0,1.5
					c0,0.9,0.3,1.9,1.3,1.9c0.5,0,1.1-0.4,1.2-0.9c0.1-0.2,0.1-0.5,0.1-0.8c0-0.7,0-1.4,0-2.1C4.8,14.5,4.7,14.1,4.5,13.8 M19.6,8.1
					c-0.4-0.9-1.1-1.7-1.8-2.4c-0.1-0.1-0.3-0.2-0.4-0.3c-0.1-0.1-0.1-0.2,0-0.3c0.3-0.3,0.6-0.6,0.8-0.8C18.7,4,19,3.6,19.4,3.2
					c0.2-0.2,0.3-0.4,0.2-0.7c-0.1-0.2-0.2-0.4-0.5-0.4c-0.2,0-0.4,0.1-0.5,0.3c-0.7,0.7-1.5,1.5-2.2,2.2c-0.1,0.1-0.2,0.1-0.4,0.1
					c-2.1-1-4.1-1-6.2,0c-0.1,0.1-0.2,0-0.3-0.1L7.4,2.3C7.2,2.1,6.9,2,6.6,2.2C6.4,2.3,6.3,2.4,6.3,2.6c0,0.1,0,0.2,0.1,0.3
					l1.5,1.5C8.1,4.6,8.3,4.8,8.4,5c0.1,0.1,0.2,0.2,0.1,0.3c0,0.1-0.1,0.1-0.1,0.2c-1.2,1-2.1,2.2-2.6,3.6c-0.1,0.3-0.2,0.6-0.2,1
					c-0.1,0.3-0.1,0.6-0.1,1c0,0.3,0,0.6,0.1,0.8c0.1,0.2,0.3,0.4,0.5,0.5c0.2,0.1,0.3,0.1,0.5,0.1h12.5c0.7,0,1.2-0.7,1.3-1.3
					c0-0.1,0-0.1,0-0.2C20.5,10.1,20.1,9,19.6,8.1 M10.5,10.5C9.7,10.5,9,9.8,9,8.9s0.7-1.5,1.5-1.5S12,8.1,12,8.9
					S11.3,10.5,10.5,10.5 M15.6,10.5c-0.8,0-1.5-0.7-1.5-1.5s0.7-1.5,1.5-1.5c0.8,0,1.5,0.7,1.5,1.5S16.4,10.5,15.6,10.5 M23.6,13.8
					c-0.2-0.4-0.6-0.6-1.2-0.5c-0.5,0-0.9,0.3-1.1,0.8c-0.2,0.4-0.1,0.8-0.1,1.3c0,0.5,0,1,0,1.5c0,0.9,0.3,1.9,1.3,1.9
					c0.5,0,1.1-0.4,1.2-0.9c0.1-0.2,0.1-0.5,0.1-0.8c0-0.7,0-1.4,0-2.1C23.8,14.5,23.7,14.1,23.6,13.8"/>
			</g>
		</g>
	</g>
</g>
</svg>
