<svg xmlns="http://www.w3.org/2000/svg" width="26" height="26" viewBox="0 0 24 24">
<path d="M22.1,2.5H7.5c-1.1,0-2.1,0.8-2.2,1.8H3.9c-1.3,0-2.3,1.1-2.3,2.3v12.8c0,1.2,1,2.3,2.3,2.3h1.4c0.2,1.1,1.1,1.8,2.2,1.8
	h14.6c1.2,0,2.3-1,2.3-2.3V4.8C24.4,3.6,23.4,2.5,22.1,2.5z M5.3,19H4.2V7h1V19H5.3z M22.8,22C20.5,22,9.3,22,7,22V6.5V4h1.4
	c3.9,0,12.5,0,14.5,0v15.5L22.8,22z M19.4,8.6h-6.6c-0.3,0-0.7,0.2-0.7,0.5v1.9h-1.5c-0.3,0-0.6,0.2-0.6,0.5v4.1
	c0,1,0.5,1.7,1.4,1.8c0.1,0,0.2,0.1,0.3,0.1h6.5c1,0,1.6-0.8,1.6-1.8V9.1C19.8,8.8,19.7,8.6,19.4,8.6z M12.1,15.7
	c0,0.4-0.2,0.8-0.5,0.8c-0.3,0-0.5-0.2-0.5-0.8v-3.6h1v3.6H12.1z M14.2,11.1c0-0.3,0.2-0.5,0.5-0.5h2.6c0.3,0,0.5,0.2,0.5,0.5
	s-0.2,0.5-0.5,0.5h-2.6C14.5,11.6,14.2,11.4,14.2,11.1z M14.2,13.1c0-0.3,0.2-0.5,0.5-0.5h2.6c0.3,0,0.5,0.2,0.5,0.5
	c0,0.2-0.2,0.5-0.5,0.5h-2.6C14.5,13.7,14.2,13.4,14.2,13.1z M14.2,15.1c0-0.3,0.2-0.5,0.5-0.5h2.6c0.3,0,0.5,0.2,0.5,0.5
	c0,0.3-0.2,0.5-0.5,0.5h-2.6C14.5,15.6,14.2,15.4,14.2,15.1z"/>
</svg>
