<svg xmlns="http://www.w3.org/2000/svg" width="26" height="26" viewBox="0 0 24 24">
<path class="st0" d="M22.2,17.6c0,0.2,0,0.3,0,0.5c-0.4,0.5-0.9,0.9-1.5,1.1c-1.5,0.5-3,0.5-4.5,0.7c-0.2,0-0.4,0.1-0.5,0.3
	c-0.9,1.1-2.6,1.1-3.5-0.1c0-0.2-0.3-0.3-0.5-0.3c-0.2-0.1-0.5,0-0.6-0.1c-1.4-0.1-2.7-0.3-4-0.9c-0.4-0.2-0.6-0.4-1-0.5
	c-0.4-0.3-0.4-0.6-0.3-1c0.1-0.2,0.2-0.4,0.3-0.5c0.2-0.4,0.5-0.7,0.6-1.1c-2.4-0.5-4.3-2.5-4.7-5C1.8,10.3,1.8,10,1.8,9.6V9.6
	c0-0.3,0.1-0.5,0.1-0.7c0.5-3.5,4.6-6.4,8.5-4.4c0.5,0.3,0.9,0.3,1.4,0.1c0.1-0.1,0.3-0.2,0.3-0.4C12.3,3.5,12.9,3,13.6,3
	c0.6,0,1.3,0.5,1.4,1.2c0.1,0.3,0.2,0.4,0.4,0.4c1.9,0.5,3,1.6,3.4,3.5c0.4,1.6,0.7,3.2,1,4.8C20.2,14.6,21.1,16.1,22.2,17.6z
	 M3.5,9.9c0.1,2.7,2.2,4.8,4.8,4.8c2.7,0,4.8-2.2,4.8-4.8c-0.1-2.7-2.4-4.8-4.7-4.8C5.6,5.1,3.4,7.4,3.5,9.9z M21,17.8
	c0-0.1,0-0.1,0-0.2c-0.4-0.2-0.7-0.4-1.2-0.5c-1.2-0.2-2.4-0.5-3.6-0.5c-2.3-0.2-4.6-0.2-6.8,0.3c-0.9,0.2-1.7,0.2-2.5,0.7
	c-0.1,0.1-0.2,0.1-0.2,0.2C6.8,17.9,6.8,18,6.9,18c1.4,0.7,3,0.9,4.4,0.9c0.1,0,0.2-0.1,0.3-0.2c0.1-0.3,0.2-0.5,0.2-0.9
	c0-0.2,0.1-0.3,0.3-0.3c1.2,0,2.3,0,3.5,0c0.2,0,0.4,0.1,0.4,0.3c0.1,0.3,0.1,0.6,0.2,0.9C17.9,18.8,19.5,18.8,21,17.8z M14.7,4.3
	c-0.1-0.5-0.5-0.7-0.9-0.7c-0.4,0.1-0.6,0.4-0.6,0.7C13.7,4.3,14.2,4.3,14.7,4.3z M7.1,8.8c0-0.3,0-0.5,0-0.7
	c0.1-0.5,0.4-0.8,0.9-0.8c0.5,0,0.7,0.4,0.7,0.9c0,0.4,0,0.7,0,1.1c0,0.4,0.2,0.6,0.5,0.9s0.6,0.5,0.9,0.9c0.3,0.4,0.3,0.9,0,1.1
	c-0.4,0.3-0.7,0.3-1.1-0.1c-0.5-0.5-1-0.9-1.5-1.5c-0.2-0.2-0.3-0.5-0.3-0.9C7.1,9.5,7.1,9.2,7.1,8.8L7.1,8.8z"/>
</svg>
