<svg xmlns="http://www.w3.org/2000/svg" width="26" height="26" viewBox="0 0 24 24">
<path d="M20.9,6.4l-8.4-4.9c-0.2-0.1-0.6-0.1-0.9,0L3.1,6.3l0,0C2.9,6.5,2.7,6.7,2.7,7.1v9.7c0,0.4,0.2,0.7,0.5,0.8l8.3,4.8
	c0.2,0.2,0.5,0.2,0.6,0.2c0.1,0,0.3,0,0.5-0.1l8.3-4.8c0.3-0.1,0.5-0.4,0.5-0.8V7.1C21.3,6.8,21.2,6.6,20.9,6.4z M19.5,8.6v6.8
	l-1.9-1.2V9.8L19.5,8.6z M12.8,6.1V3.8l5.8,3.4l-2,1.2L12.8,6.1z M12.8,16v-3.5l3-1.8v3.5L12.8,16z M18.7,16.7l-5.9,3.4v-2.3
	l3.9-2.2L18.7,16.7z M15,9.3l-3,1.8L9,9.3l3-1.8L15,9.3z M11.2,12.5V16l-3-1.8v-3.5L11.2,12.5z M7.4,15.5l3.8,2.2v2.3l-5.8-3.4
	L7.4,15.5z M5.3,7.2l5.8-3.4v2.3L7.3,8.4L5.3,7.2z M6.6,9.8v4.5l-2,1.2V8.6L6.6,9.8z"/>
</svg>
