<svg xmlns="http://www.w3.org/2000/svg"
    width="24" height="24"
    viewBox="0 0 24 24">
<g>
	<g>
		<path fill="#FFAD1D" d="M20.5,12c0,4.7-3.8,8.5-8.5,8.5c-4.7,0-8.5-3.8-8.5-8.5c0-4.7,3.9-8.5,8.6-8.5C16.7,3.5,20.5,7.4,20.5,12z"/>
	</g>
	<path fill="#FF7D3D" d="M1,12C1,5.9,5.9,1,12,1c6,0,11,5,11,11c0,6.1-5,11-11,11C5.9,23,1,18.1,1,12z M20.1,12c0-4.4-3.6-8.1-8-8.1
		C7.6,3.9,4,7.5,4,12c0,4.4,3.6,8.1,8,8.1C16.4,20.1,20.1,16.5,20.1,12z"/>
</g>
<g>
	<path fill="#FF5821" d="M12,9.5c0-0.6,0-1.2,0-1.8c0-0.3,0.1-0.4,0.4-0.4c1,0,1.9,0,2.9,0c0.3,0,0.4,0.1,0.4,0.4c0,0,0,0,0,0.1
		c0.1,1.6,0.1,1.6-1.5,1.6c-0.5,0-0.6,0.1-0.6,0.6c0,1.3,0,2.7,0,4c0,1.4-0.9,2.6-2.3,2.8c-1.6,0.2-3.1-1.2-2.9-2.9
		c0.2-1.6,1.9-2.6,3.3-2.1c0.3,0.1,0.4,0,0.4-0.3C12,10.8,12,10.2,12,9.5z"/>
</g>
</svg>
