<svg xmlns="http://www.w3.org/2000/svg" width="26" height="26" viewBox="0 0 24 24">
<path d="M20,16.1V3.1c0-0.5,0.3-1.9-1.7-1.6l-11,1.7C5.8,3.5,5.7,4.4,5.7,4.9v11.9c-0.2,0-0.3-0.1-0.5-0.1c-1.6,0-2.8,1.4-2.8,2.8
	c0,1.6,1.4,2.8,2.8,2.8c0.6,0,1.3-0.2,1.7-0.5C7.6,21.4,8,20.5,8,19.7v-0.1v-8.8C8,10.2,8.5,9.8,9,9.7l7.9-1.3
	c0.5-0.1,0.8,0.3,0.8,0.8v4.2c-0.2,0-0.3-0.1-0.5-0.1c-1.6,0-2.8,1.4-2.8,2.8c0,1.6,1.4,2.8,2.8,2.8c0.6,0,1.3-0.2,1.7-0.5
	C19.6,18,20,17.3,20,16.1C20,16.2,20,16.1,20,16.1z M16.9,6.5L9,7.9C8.5,8,8.1,7.7,8.1,7.4c0-0.3,0.4-0.7,0.8-0.8l7.9-1.3
	c0.5-0.1,0.8,0.2,0.8,0.5C17.7,6.1,17.3,6.5,16.9,6.5z"/>
</svg>
