<svg xmlns="http://www.w3.org/2000/svg"
    width="24" height="24"
    viewBox="0 0 24 24">
	<path fill="#1394BC" d="M18,12.9h-5.1c-0.6,0-1-0.4-1-1V3.6H19v8.3C19,12.5,18.5,12.9,18,12.9z"/>    
	<path fill="#0091c4" d="M10.8,3.6L5,0.3C4.1-0.2,3,0.1,2.5,0.9c-0.2,0.3-0.3,0.6-0.2,1v20.3C2.2,23.2,3,24,4,24c0.3,0,0.7-0.1,1-0.3
	l0.9-0.5L10.8,3.6z M22.8,10.5l-1.4-0.9v4.8l1.4-0.9c0.8-0.5,1.1-1.5,0.7-2.4C23.3,10.9,23.1,10.6,22.8,10.5z"/>
	<path fill="#5fd2ff" d="M19,3.6h-1.1v7.8c0,0.4-0.3,0.7-0.7,0.7c-0.2,0-0.4-0.1-0.5-0.2l-0.8-0.9l-0.3-0.3l-0.1-0.1
	c-0.3-0.3-0.9-0.3-1.2,0l-0.1,0.1l-0.1,0.3l-0.8,1c-0.2,0.3-0.6,0.3-0.9,0c-0.1-0.1-0.2-0.3-0.2-0.5v-8H8c-1.2,0-2.2,1-2.2,2.2v17.4
	l0.7-0.3l14.9-8.5V6C21.4,4.7,20.3,3.6,19,3.6z"/>
</svg>