<svg xmlns="http://www.w3.org/2000/svg" width="26" height="26" viewBox="0 0 24 24">
<path d="M16.8,2.8c-1.2,0-3.4,0.1-4.8,1.1c-1.3-1-3.5-1.1-4.8-1.1c-2.8,0-5.7,0.8-5.7,3.1v11.8c0,0.9,0.8,1.7,1.7,1.7h6.5
	c0.3,0.5,1.4,0.7,2.3,0.7s1.9-0.2,2.3-0.7h6.5c0.9,0,1.7-0.8,1.7-1.7V5.9C22.5,3.6,19.5,2.8,16.8,2.8z M20.4,5.9v10.8
	c-0.8-0.4-2.2-0.7-3.7-0.7c-1.2,0-2.7,0.2-3.7,0.7V5.9c0-0.3,1.4-0.9,3.7-0.9S20.4,5.7,20.4,5.9z M5,7.5l1.3,1.3
	C6.4,9,6.6,9,6.8,8.8l1.4-1.3c0.1-0.1,0.1-0.2,0.1-0.3V5c1.8,0.2,2.6,0.7,2.6,0.9v10.8c-0.8-0.4-2.2-0.7-3.7-0.7
	c-1.2,0-2.7,0.2-3.7,0.7V5.9c0-0.1,0.3-0.4,1.3-0.7v2C4.8,7.4,4.9,7.4,5,7.5z"/>
</svg>
