<svg xmlns="http://www.w3.org/2000/svg" width="26" height="26" viewBox="0 0 24 24">
<path d="M16.8,10.2c-0.4,0.4-1,0.6-1.5,0.6c-0.6,0-1.1-0.2-1.5-0.6c-0.8-0.9-0.8-2.2,0-3.1c0.4-0.4,1-0.6,1.5-0.6
	c0.6,0,1.1,0.2,1.5,0.6C17.7,8,17.7,9.4,16.8,10.2z M21.2,20h-9.3c-0.1,0-0.1,0-0.2,0C7.4,19.8,4,16.3,4,12c0-4.4,3.6-8,8-8
	c4.4,0,8,3.6,8,8c0,1.9-0.6,3.6-1.8,5.1c-0.4,0.5-0.4,1.3,0.2,1.8c0.5,0.4,1.3,0.4,1.8-0.2c1.6-1.9,2.4-4.2,2.4-6.7
	c0-5.8-4.7-10.5-10.5-10.5S1.5,6.2,1.5,12c0,5.8,4.6,10.4,10.4,10.5c0,0,0,0,0,0h9.3c0.7,0,1.3-0.6,1.3-1.3S21.9,20,21.2,20z
	 M15.3,13.1c-0.6,0-1.1,0.2-1.5,0.6c-0.8,0.8-0.8,2.2,0,3.1c0.4,0.4,1,0.6,1.5,0.6c0.6,0,1.1-0.2,1.5-0.6c0.8-0.8,0.8-2.2,0-3.1
	C16.4,13.3,15.9,13.1,15.3,13.1z M8.7,13.1c-0.6,0-1.1,0.2-1.5,0.6c-0.8,0.8-0.8,2.2,0,3.1c0.4,0.4,1,0.6,1.5,0.6
	c0.6,0,1.1-0.2,1.5-0.6c0.8-0.8,0.8-2.2,0-3.1C9.8,13.3,9.3,13.1,8.7,13.1z M10.2,7.1c-0.4-0.4-1-0.6-1.5-0.6
	c-0.6,0-1.1,0.2-1.5,0.6c-0.8,0.8-0.8,2.2,0,3.1c0.4,0.4,1,0.6,1.5,0.6c0.6,0,1.1-0.2,1.5-0.6C11.1,9.4,11.1,8,10.2,7.1z M11.3,11.3
	c-0.4,0.4-0.4,1,0,1.4c0.2,0.2,0.4,0.3,0.7,0.3s0.5-0.1,0.7-0.3c0.4-0.4,0.4-1,0-1.4C12.5,11.1,12.3,11,12,11S11.5,11.1,11.3,11.3z"
	/>
</svg>
