<svg xmlns="http://www.w3.org/2000/svg" width="26" height="26" viewBox="0 0 24 24">
<path id="path" d="M20.4,5.3c0.2,0.1,0.1,1,0.1,1l0,0c-0.4-0.4-0.7-0.8-1.2-1.2C19,5,18.7,4.8,18.4,4.7c-0.5-0.2-1.2-0.4-1.8-0.5
	c-1.9-0.3-3.9,0.1-5.9,0.7c-0.3,0.1-2.3,0.7-2.8,1C7.5,6.1,7,6.3,6.6,6.5C5.7,7.1,5,7.6,4.3,8c-0.4,0.3-0.7,0.6-1,0.8
	c0-1,0-2.1,0-3.3c0-0.1,0.1-0.4,0.2-0.4c0,0,0.4-0.4,1-0.9c1-0.7,2.8-1.8,5.1-2.4c0.7-0.1,1.4-0.2,2.2-0.2c2-0.1,3.6,0.2,4.7,0.7
	c0.6,0.2,1.2,0.6,1.7,0.9C19.8,4.3,20.4,5.2,20.4,5.3 M12.1,22.4c-0.2,0-1.3-0.7-1.6-0.9c-0.3-0.2-0.7-0.4-1-0.6
	C8.7,20.4,8,20,7.3,19.5c-1.3-0.8-2.5-1.9-3.1-3.4c-0.5-1.3-0.6-2.6-0.5-3.9c0-0.4,0-0.8,0.2-1.2C4,10.7,4.3,10.3,4.8,10
	C7,8.1,9.5,6.8,12.2,5.8c2.2-0.7,4.5-1,6.6-0.1C19.3,5.9,20,6.3,20.4,7c0.4,0.7,0.4,1.8,0.4,2.6c0,2.3,0.4,4.7-0.6,6.8
	c-0.7,1.5-2,2.5-3.4,3.5c-0.7,0.5-3.9,2.5-4.1,2.6c0,0-0.2,0.1-0.3,0.1C12.3,22.5,12.1,22.4,12.1,22.4z M16.3,10.8
	c0.5-0.4-0.5-1.4-0.8-1.6c-0.2-0.2-0.6-0.2-0.9,0c-1,0.8-2.2,1.8-3.3,2.7c-0.5-0.4-1-0.8-1.5-1.2c-0.2-0.1-0.6-0.1-0.8,0.1
	c-0.2,0.2-0.5,0.5-0.7,0.7c-0.1,0.2-0.1,0.3-0.1,0.4c0,0.2,0.1,0.3,0.1,0.5l0,0l1,1.2l1.7,2c0.2,0.2,0.6,0.2,0.9,0.1l0,0l0.1-0.1
	C13.4,14,14.8,12.4,16.3,10.8"/>
</svg>
