<svg xmlns="http://www.w3.org/2000/svg" width="26" height="26" viewBox="0 0 24 24">
<path d="M21.9,1.9H7.1c-0.7,0-1.4,0.6-1.4,1.2v4.4H2.4C1.7,7.6,1,8.1,1,8.8v9.1c0,2.2,1.3,3.8,3.2,4c0.2,0.1,0.4,0.2,0.7,0.2h14.5
	c2.2,0,3.6-1.7,3.6-4.2V3.1C23,2.4,22.6,1.9,21.9,1.9z M5.7,17.9c0,0.9-0.5,1.6-1.1,1.6c-0.7,0-1.1-0.6-1.1-1.6V10h2.2V17.9z
	 M20.5,17.9c0,1.1-0.3,1.7-1.2,1.7H8c0.2-0.5,0.2-1.1,0.2-1.7V4.3h12.4V17.9z M10.5,7.6c0-0.7,0.6-1.2,1.2-1.2h5.9
	c0.7,0,1.2,0.6,1.2,1.2s-0.6,1.2-1.2,1.2h-5.9C11.1,8.8,10.5,8.2,10.5,7.6z M10.5,12c0-0.7,0.6-1.2,1.2-1.2h5.9
	c0.7,0,1.2,0.6,1.2,1.2s-0.6,1.2-1.2,1.2h-5.9C11.1,13.2,10.5,12.7,10.5,12z M10.5,16.4c0-0.7,0.6-1.2,1.2-1.2h5.9
	c0.7,0,1.2,0.6,1.2,1.2c0,0.7-0.6,1.2-1.2,1.2h-5.9C11.1,17.7,10.5,17.1,10.5,16.4z"/>
</svg>
