<svg xmlns="http://www.w3.org/2000/svg" width="26" height="26" viewBox="0 0 24 24">
<path class="st0" d="M18.1,13.8c-1.3,0-2.4,0.6-3.1,1.6c-1.5-0.8-3.1-1.4-4.5-2.3c0.4-0.9,0.2-2.3-0.1-3.1c1.2-0.7,2.4-1.4,3.7-2
	c0.6,0.7,1.5,1.1,2.5,1.1c1.8,0,3.3-1.5,3.3-3.3s-1.5-3.3-3.3-3.3S13.3,4,13.3,5.8c0,0.2,0,0.4,0.1,0.7c-1.3,0.7-2.5,1.4-3.8,2.1
	C8.7,7.9,7.4,7.2,5.8,7.3C5.2,7.4,4.7,7.6,4.3,7.8c-4.1,2.1-2.4,8.7,2.4,8.3C8,16,8.9,15.3,9.8,14.7c1.5,0.8,3,1.5,4.6,2.3
	c0,0.2-0.1,0.5-0.1,0.7c0,2.1,1.7,3.8,3.8,3.8s3.8-1.7,3.8-3.8C22,15.5,20.3,13.8,18.1,13.8z M16.6,3.6c1.2,0,2.2,1,2.2,2.2
	S17.8,8,16.6,8s-2.2-1-2.2-2.2C14.4,4.6,15.4,3.6,16.6,3.6z" fill="#ffffff"/>
</svg>
