<svg xmlns="http://www.w3.org/2000/svg" width="24" height="24" viewBox="0 0 24 24">
<path d="M21.7,7.8c-0.3-0.7-1.2-1.3-1.9-1.2s-1.6-0.2-2-0.6s-0.7-1.2-0.7-2c0-0.7-0.5-1.6-1.3-1.9s-1.7-0.1-2.2,0.5s-1.3,1-1.8,1
	S10.5,3.2,10,2.7S8.5,1.9,7.8,2.3S6.5,3.4,6.6,4.2S6.3,5.8,6,6.2S4.7,6.8,4,6.8c-0.7,0-1.6,0.5-1.9,1.3s-0.1,1.7,0.5,2.2
	c0.6,0.5,1,1.3,1,1.8c0,0.5-0.4,1.3-0.9,1.9c-0.5,0.5-0.7,1.5-0.4,2.2c0.3,0.7,1.2,1.3,1.9,1.2c0.7-0.1,1.6,0.2,2,0.6
	c0.4,0.4,0.7,1.2,0.7,2c0,0.7,0.5,1.6,1.3,1.9s1.7,0.1,2.2-0.5c0.5-0.6,1.3-1,1.8-1c0.5,0,1.3,0.4,1.9,0.9c0.5,0.5,1.5,0.7,2.2,0.4
	c0.7-0.3,1.3-1.2,1.2-1.9c-0.1-0.7,0.2-1.6,0.6-2s1.2-0.7,2-0.7s1.6-0.5,1.9-1.3c0.3-0.7,0.1-1.7-0.5-2.2c-0.6-0.5-1-1.3-1-1.8
	s0.4-1.3,0.9-1.9C21.9,9.4,22,8.5,21.7,7.8z M13.5,15.6c-2,0.9-4.3-0.1-5.1-2s0.1-4.3,2-5.1s4.3,0.1,5.1,2c0,0,0,0,0,0
	C16.4,12.4,15.5,14.7,13.5,15.6L13.5,15.6z"/>
</svg>
