<svg xmlns="http://www.w3.org/2000/svg"
    width="24" height="24"
    viewBox="0 0 24 24">
<path d="M23.8,8.2c-0.3-1.2-0.8-2.1-1.6-3c-0.6-0.8-1.6-1.4-2.4-1.8c-1.1-0.4-2-0.5-3.1-0.3c-1.2,0.2-2.1,0.7-3,1.4
	c-0.2,0.2-0.4,0.4-0.7,0.6L13,5.2c0,0,0,0-0.1-0.1c-1.6-1.7-3.6-2.3-5.7-1.9c-3,0.6-5.1,3.2-5.2,6.1c0,1.6,0.4,3.1,1.2,4.6
	c0.8,1.6,1.8,3,3.4,4.6c1.6,1.6,3.4,2.9,5.8,4.5c0.1,0.1,0.2,0.1,0.3,0.1c0.1,0,0.3,0,0.4,0c0.3,0,0.6,0,0.8-0.2
	c0.2-0.1,0.4-0.2,0.6-0.3c0.3-0.2,0.6-0.4,0.9-0.6c0.7,0.3,1.4,0.4,2.2,0.4c3.2,0,5.8-2.6,5.8-5.8c0-0.9-0.2-1.7-0.5-2.4
	c0.3-0.7,0.6-1.4,0.8-2.1C23.9,10.7,24,9.4,23.8,8.2z M11.8,16.6c0,1,0.3,1.9,0.7,2.8c-2-1.4-3.6-2.6-4.8-4C6.5,14,5.9,13,5.4,11.8
	C5.2,11.2,5,10.3,5,9.6c-0.1-1,0.3-1.9,0.9-2.5c0.7-0.7,1.6-1,2.4-1c0.1,0,0.2,0,0.3,0c1.5,0.1,2.6,1.1,3,2.3
	c0.1,0.4,0.4,0.7,0.8,0.9c0.4,0.2,0.9,0.1,1.2-0.1C14,9,14.3,8.7,14.4,8.3c0.4-1.3,1.3-2,2.5-2.3c0.9-0.2,1.8,0,2.6,0.5
	c0.9,0.6,1.4,1.4,1.6,2.2c0.1,0.8,0.1,1.6-0.2,2.5c0,0.2-0.1,0.3-0.2,0.4c-0.9-0.5-1.9-0.9-3.1-0.9C14.4,10.7,11.8,13.3,11.8,16.6z
	 M20.5,17.7c-0.1,0.1-0.2,0.1-0.4,0.1h-0.9c-0.2,0-0.3,0.1-0.3,0.3v0.9c0,0.1,0,0.3-0.1,0.4c-0.1,0.1-0.1,0.2-0.3,0.2
	c-0.1,0-0.2,0-0.3,0H17c-0.4,0-0.6-0.3-0.6-0.6v-0.9c0-0.2-0.1-0.3-0.3-0.3h-0.4h-0.6c-0.4,0-0.6-0.3-0.6-0.6v-1.3
	c0-0.4,0.3-0.6,0.6-0.6h0.9c0.2,0,0.3-0.1,0.3-0.3V14c0-0.4,0.3-0.6,0.6-0.6h1.3c0.4,0,0.6,0.3,0.6,0.6v0.7V15
	c0,0.2,0.1,0.3,0.3,0.3h0.9c0.4,0,0.6,0.3,0.6,0.6v1.3c0,0.1,0,0.2-0.1,0.3C20.7,17.6,20.6,17.6,20.5,17.7z"/>
</svg>
