<svg xmlns="http://www.w3.org/2000/svg" width="26" height="26" viewBox="0 0 24 24">
<path d="M8.5,11.1V8.9c0-0.2,0.2-0.3,0.3-0.3h1.8V6.8c0-0.2,0.2-0.3,0.3-0.3h2.1c0.2,0,0.3,0.2,0.3,0.3v1.8h1.8
	c0.2,0,0.3,0.2,0.3,0.3v2.1c0,0.2-0.2,0.3-0.3,0.3h-1.8v1.8c0,0.2-0.2,0.3-0.3,0.3h-2.1c-0.2,0-0.3-0.2-0.3-0.3v-1.8H8.8
	C8.7,11.4,8.5,11.2,8.5,11.1z M19.4,2.6v14.2c0,0.5-0.2,1-0.6,1.2l-6,4.2c-0.2,0.2-0.5,0.2-0.7,0.2s-0.5-0.1-0.7-0.2l-6-4.2
	c-0.4-0.3-0.6-0.7-0.6-1.2V2.6c0-0.6,0.5-1.1,1.1-1.1h12.6C18.9,1.5,19.4,2,19.4,2.6z M16.9,4H7.1v12.3l4.9,3.4l4.9-3.4V4z"/>
</svg>
