<?xml version="1.0" encoding="utf-8"?>
<!-- Generator: Adobe Illustrator 22.0.1, SVG Export Plug-In . SVG Version: 6.00 Build 0)  -->
<svg version="1.1" id="artwork" xmlns="http://www.w3.org/2000/svg" xmlns:xlink="http://www.w3.org/1999/xlink" x="0px" y="0px"
	 viewBox="0 0 752.1 755" style="enable-background:new 0 0 752.1 755;" xml:space="preserve">
<style type="text/css">
	.st0{fill:#3B414F;}
	.st1{fill:#00BA4B;}
	.st2{fill:#049940;}
	.st3{opacity:0.5;}
	.st4{opacity:0.7;enable-background:new    ;}
	.st5{fill:#2B313D;}
	.st6{fill:#1D2430;}
	.st7{fill:#E6E7E6;}
	.st8{fill:#FFFFFF;}
	.st9{fill:#828A99;}
	.st10{fill:#FEB483;}
</style>
<path class="st0" d="M237.9,367.9c3.7,0.1,7.4,0.1,11,0.5c10.9,1.1,18.8,9.6,18.8,20.6c0.1,30.6,0.1,61.2,0,91.8
	c-0.1,11.9-8.9,20.4-20.9,20.6c-3,0.1-6-0.7-8.9,0.6c-6.9-1.5-13.8-0.3-20.7-0.7c-44,0-87.9,0-131.9,0c-1.4,0-2.9-0.3-4.3-0.4
	c-0.9-0.5-1.8-0.9-2.6-1.4c-7.2-3.8-11.6-9.1-11.5-17.9c0.2-31.6,0.1-63.1,0-94.7c0-2.8,0.7-5.2,1.8-7.7c2.5-5.5,7.4-7.9,12.2-10.6
	c21.7,0,43.3-0.1,65-0.1c22,0,44,0,66,0c1.8,0,3.6,0.2,5.3-0.7C224.1,367.9,231,367.9,237.9,367.9z"/>
<path class="st1" d="M494.1,524.8c0.1,4.6,0.1,9.1,0.2,13.7c0,32,0,64,0,96c0,0.7-0.1,1.3-0.1,2c0,0,0.1-0.1,0.1-0.1
	c-0.1,0.4-0.2,0.7-0.3,1.1c-52.9-0.1-105.9-0.1-158.8-0.2c-32.4,0-64.8,0-97.2,0c0-45.1,0-90.2-0.1-135.3c2.9-1.3,5.9-0.6,8.9-0.6
	c12-0.2,20.9-8.6,20.9-20.6c0.1-30.6,0.1-61.2,0-91.8c0-11.1-8-19.5-18.8-20.6c-3.6-0.4-7.3-0.3-11-0.5c0-59.7,0.1-119.5,0-179.2
	c0-3.4,0.9-4.2,4.2-4.2c49.5,0.1,98.9,0.1,148.4,0.1c16.9,0,33.7,0,50.6,0.1c0.9,0,4.2-1.3,2.3,1.9c-4.5,7.6-7.4,15.9-9.7,24.4
	c-2.7,2.8-5.4,5.5-8,8.4c-9.2,10-18.6,19.8-21.6,33.8c-4.3,19.8-0.3,36.1,16.1,48.4c13.6,10.2,29.1,13,45.7,10.3
	c3.6-0.6,11.2-1,15.2-1.5c4.5,1.8,8.9,3.7,13.4,5.5c0,2.7-0.1,5.4-0.1,8c0,38.4,0,76.9,0,115.3c-0.3,1-1.2,1.2-2,1.6
	c-14.3,6.9-28.6,13.9-42.9,20.9c-24.4,11.8-48.6,23.8-73.1,35.2c-14,6.5-25.6,14.7-28.4,31c-2.6,14.4,1.5,26.9,12.8,36.3
	c11.3,9.4,24.6,12.2,38.2,6.3c17.4-7.5,34.2-16.3,51.2-24.5C464.8,538.8,479.4,531.8,494.1,524.8z M595.5,360.1
	c-1.5-2.2-3.1-4.3-4.5-6.5c-5.8-8.6-11.5-17.3-17.3-25.9c-0.8-0.4-1.2-1-1.1-1.9c0,0,0,0.1,0,0.1c-3.7,0.2-6.3,2.9-9.6,3.9
	c0.1,1.7,1,2.9,1.9,4.2c6.7,9.9,13.2,19.8,19.9,29.7C587.9,361.5,591.9,361.4,595.5,360.1z M126.3,472.6c-9,0-18.1,0-27.1,0
	c-5.2,0-8.8-3.5-8.9-8.4c-0.1-4.8,3.5-8.8,8.6-8.8c18.3-0.1,36.6-0.1,54.9,0c5,0,8.7,4.2,8.5,8.9c-0.1,4.8-3.8,8.3-8.9,8.4
	C144.4,472.7,135.3,472.6,126.3,472.6z M153.4,408.9c5.2,0,8.8-3.5,9-8.3c0.2-4.9-3.6-8.9-8.8-9c-18.1-0.1-36.2-0.1-54.3,0
	c-5.3,0-9,3.9-9,8.8c0.1,5,3.8,8.4,9.2,8.5c8.9,0,17.9,0,26.8,0C135.3,408.9,144.3,409,153.4,408.9z M146.9,426.2
	c-5.1,0-8.8,3.5-8.9,8.4c-0.2,4.9,3.6,8.9,8.7,8.9c13.5,0.1,27,0.1,40.5,0c5.3,0,8.6-3.8,8.5-9.1c-0.1-4.7-3.7-8.2-8.6-8.2
	c-6.7,0-13.4,0-20.1,0C160.3,426.2,153.6,426.1,146.9,426.2z M235.3,414.2c4.7-0.1,8.5-3.8,8.6-8.4c0.1-4.6-3.5-8.7-8.2-8.9
	c-6.2-0.2-12.5-0.2-18.7,0c-4.7,0.1-8.3,4.2-8.2,8.8c0.1,4.7,3.7,8.3,8.5,8.5c2.9,0.1,5.8,0,8.7,0
	C229,414.2,232.2,414.3,235.3,414.2z"/>
<path class="st2" d="M372.8,321.1c-5.2-22.6,12.6-46.3,39.5-52.5s53.3,7.3,58.6,29.8c4.9,21.4,7.5,61.9-17.5,69.4
	C453.4,367.9,378.1,343.7,372.8,321.1z M497.6,473c-12.4,5.5-108.2,39.8-120.7,45c-12.9,5.4-23.5,12.3-26.2,26
	c-2.3,12.1,1.4,22.6,11.8,30.5c10.4,7.9,22.6,10.3,35.1,5.3c9.5-3.7,87.4-13.8,96.7-17.9C494.4,540.2,500,495.2,497.6,473z"/>
<g class="st3">
	<path class="st4" d="M424.9,382.9c0-1.4,0-2.2,0-3.6v-1.4c-10.8,0-20.8,0-31.6,0c-2.9,0-5.7,0-7.9,0c-4.3,0-7.2,2.9-7.2,7.2v20.8
		c0,0.7,0,1.4,0,2.2c0.7,1.4,1.4,0.7,2.9,0.7c6.5,0,12.2,0,18.6,0c3.6,0,17.2,0.7,20.8,0.7h1.4l0.7-1.4
		C425.6,395.8,424.9,389.4,424.9,382.9z"/>
	<path d="M455,383.7c-0.7-3.6-3.6-5.7-7.2-5.7h-30.1l0.7,3.6c0.7,7.9,0,14.3-3.6,25.8c-2.9,10.8-7.9,17.9-16.5,22.9
		c-16.5,9.3-32.3,9.3-47.3-0.7c-15.8-10-22.2-24.4-20.1-42.3c2.9-18.6,12.9-30.8,31.6-37.3c11.5-3.6,22.9-2.9,35.1,3.6
		c2.9,1.4,5.7,0.7,7.9-0.7c4.3-3.6,10.8-9.3,15.8-13.6c3.6-2.9,3.6-8.6,0-11.5c-27.2-20.8-67.4-20.1-96.1,2.9
		c-30.8,25.1-38,69.6-17.2,103.3c15.1,23.7,40.9,36.6,67.4,36.6c11.5,0,22.9-2.9,33.7-7.9C441.4,447.5,460.7,411.6,455,383.7z"/>
</g>
<g>
	<path class="st0" d="M488.5,128.3H243.9c-4.4,0-8,3.6-8,8v38.8c0,4.4,3.6,8,8,8h244.5c4.4,0,8-3.6,8-8v-38.8
		C496.5,132,492.9,128.3,488.5,128.3z M396.9,160.3c-0.2,4.6-2.3,6.5-6.6,6.5c-16.2,0-32.4,0-48.6,0c-4,0-7.5-3.1-7-6.8
		c0.5-3.9,2.8-6,7.1-5.9c8.1,0.1,16.3,0,24.5,0c8,0,16.1,0,24.1,0C394.6,154,397,155.3,396.9,160.3z"/>
</g>
<path class="st5" d="M486,604.6H237.9c0-34.2,0-68.5-0.1-102.7c-6.9-1.5-13.8-0.3-20.7-0.7c0,37.1,0,74.2,0,111.2c0,0,0,0.1,0,0.1
	v21.6c0,11.3,0,22.6,0,34c0,1.6,0,3.2,0,4.8v15.7c0,4.4,3.6,8,8,8H486c4.4,0,8-3.6,8-8v-76.1C494,608.3,490.4,604.6,486,604.6z"/>
<path class="st5" d="M562.8,329.8c3.3-1,6-3.7,9.6-3.9c-0.3-2.9-0.9-5.4-4.7-3.7c-5.4,2.5-10.8,5.3-16.2,7.8c-2,0.9-2.3,2.2-1.5,4
	c6.3,13.1,12.7,26.2,19,39.4c5.1,10.5,10.1,21.1,15.1,31.6c0.8,1.7,1.6,2.4,3.5,1.4c5.1-2.7,10.1-5.6,15.5-7.8
	c3.1-1.2,3.8-2.6,2.6-5.4c-5.5,2.5-10.9,4.9-16.4,7.4c-1.4,0.7-2.6,0.8-3.4-0.7c-2.2-4.6-4.3-9.3-6.4-13.9c-0.4-0.5-0.9-1.1-1.1-1.6
	c-7-14.4-14-28.8-20.8-43.4C554.1,333.1,554.3,333,562.8,329.8z"/>
<path class="st5" d="M66.8,481.6c0.2-31.6,0.1-63.1,0-94.7c0-2.8,0.7-5.2,1.8-7.7c2.5-5.5,7.4-7.9,12.2-10.6c-5.9,0-11.8-0.3-17.8,0
	c-9.5,0.3-18.3,9.1-18.3,18.5c-0.1,31.7-0.1,63.4,0,95.2c0,9.1,7.6,17.5,16.8,18.4c6.4,0.6,12.9,0.2,19.4,0.2
	c-0.9-0.5-1.8-0.9-2.6-1.4C71.1,495.7,66.8,490.4,66.8,481.6z"/>
<path class="st5" d="M654.9,302.2c-1.4-1.1-3-0.7-4.5-0.3c-7.2,2-14.6,2.2-21.9,2.2c-28.8-0.1-53.8-10.5-75.1-29.4
	c-16.3-14.5-29.7-31.7-37.5-52.3c-7.9-20.8-11.9-42.1-9-64.7c1.3-9.9,3-19.6,6.6-28.8c7.5-19.1,18.5-35.7,35.6-47.6
	c0.9-0.6,2.2-1,1.6-2.5c-15.5,8.2-28.1,19.8-36.7,34.9c-5.6,9.7-12.1,18.2-21,24.9c-5.5,4.8-11.1,9.6-16.5,14.5
	c-10.2,9.5-21.9,17.3-30.4,28.6c-0.7,0.9-1.4,1.5-2.7,1.5c-42.3-0.2-84.6-0.3-126.9-0.4c-14.4,0-28.7-0.1-43.1,0
	c2.1-1.5,3.5-3.9,3.5-6.6v-37.9c0-4.4-3.6-8-8-8h-44.6c-4.4,0-8,3.6-8,8v7.4c-0.2,1.4-0.2,2.8,0,4.3v26.2c0,0.1,0,0.2,0,0.3
	c0,15.7-0.1,31.3-0.1,47c0,0.7,0.7,97.2,0.7,144.4c6.9,0,13.8,0,20.7,0c0-59.7,0.1-119.5,0-179.2c0-3.4,0.9-4.2,4.2-4.2
	c49.5,0.1,98.9,0.1,148.4,0.1c16.9,0,33.7,0,50.6,0.1c0.9,0,4.2-1.3,2.3,1.9c-4.5,7.6-7.4,15.9-9.7,24.4c-0.3,1.2-0.7,2.5-1,3.7
	c-0.5,8.4-1.2,16.8,0,25.3c3.9,27.6,17.2,49.4,39.9,65.5c2.1,1.5,4.3,2.6,6.5,4c0.7,0.3,1.4,0.6,2.1,0.9c4.5,1.8,8.9,3.7,13.4,5.5
	c6.8-0.3,9.3,4.2,11.8,9.6c7.4,15.9,15.1,31.7,22.7,47.5c0.7,0,1.3,0,2,0c0.9-0.8,1.8-0.8,2.7,0c1,0.1,2,0.2,3,0.3
	c0.8-0.3,1.4-0.1,1.8,0.7c7.8,2,11.5,8.1,14.6,14.8c6.4,13.5,13,26.8,19.3,40.4c3.5,7.7,2.2,15.1-3.1,21.5c-1.5,1.8-1.3,2.8-0.4,4.6
	c4.4,9.1,8.7,18.3,13.1,27.5c6.4,10.7,15.5,15.7,27.9,12c5.5-1.6,10.5-4.8,15.7-7.3c-2-1.3-4.1-0.1-6.2-0.2
	c-10.5-0.4-16.3-6.8-20.5-15.2c-6.7-13.4-13-27-19.6-40.6c-7.5-15.5-15.1-30.9-22.6-46.4c-9.1-19-18.1-38.2-27.2-57.2
	c-5-10.3-10.2-20.4-15.2-30.7c-0.7-1.5-2.8-3.5-0.8-5c2-1.5,4.8-2.7,6.9,0.5c0.9,1.3,2.2,2.3,3.3,3.3c0.7,0.6,1.7,1.4,2.3,0.5
	c2.7-4.3,4-0.9,5.7,0.8c11.6,12.1,25.7,15.6,41.9,12.3c1.6-0.3,3.3-0.4,5-0.5c5.3-2.3,11.1-3.7,16.7-2.9c6.5,1,12.9,2.3,19.5,2.7
	C628.3,309.3,641.9,307.3,654.9,302.2z"/>
<path class="st6" d="M704.1,135.2c-1.3-0.2-10.7-15.8-12.7-18c-3-3.5-9.2-11.3-9.7-11.8c-10.9-10.5-23.2-18.9-37.2-24.4
	c-17.2-6.8-35-8.7-53.4-5.3c-17.8,3.3-32.9,11.5-45.6,24c-9.6,9.4-16.8,20.7-21.7,33.4c-5.2,13.8-7.5,28.1-7.1,42.9
	c0.6,21.9,6.6,42.1,18,60.8c14,23,33.2,40.1,58.4,49.8c14.9,5.7,30.5,7.7,46.6,5.5c15.2-2.1,28.9-7.3,41.2-16.5
	c13-9.7,22.8-22,29.2-36.7c7.3-16.8,9.9-34.5,8.8-53.1C717.7,167.5,712.3,151,704.1,135.2z"/>
<path class="st7" d="M478.9,309.3c0.7,0.3,1.4,0.6,2.1,0.9c-3.9,0.5-7.9,1-11.8,1.5c-1.1,0-2.2,0-3.3,0c-16.6,2.7-32-0.1-45.7-10.3
	c-16.4-12.3-20.5-28.6-16.1-48.4c3.1-14,12.4-23.8,21.6-33.8c2.6-2.8,5.3-5.6,8-8.4c-0.3,1.2-0.7,2.5-1,3.7c-1.1,0-1.4,0.9-1.8,1.7
	c-4.7,8.3-7.4,17.2-7.8,26.7C422,274.3,443.4,304.9,478.9,309.3z"/>
<path class="st7" d="M663.8,202.9l-46.1,21c-21.5,9.8-47.2,0.2-57-21.3l-0.1-0.1c-9.8-21.5-0.2-47.2,21.3-57l46.1-21
	c21.5-9.8,47.2-0.2,57,21.3l0.1,0.1C695,167.5,685.4,193.1,663.8,202.9z"/>
<g>
	<path class="st0" d="M731.2,168.6c-1.8-8.2-4.4-18.9-8.9-29.2c-5.6-19.1-20.6-35.4-29-43.5c-1.8-1.8-3.8-3.6-6.4-5.7
		c-0.4-0.3-0.5-0.4-0.5-0.4c0,0,0,0-0.1,0c-1-0.8-2-1.6-3-2.4c-1.8-1.4-3.7-2.9-5.5-4.4c-5.1-4.4-11.3-8.2-19.3-12.1
		c-6-2.9-12.5-5.4-19.5-7.6c-16.6-5.1-34-6-53-2.8C571.8,62.9,547.2,77.9,547,78c-16.4,11.3-28.5,27.5-37.1,49.4
		c-4,10.1-5.7,20.7-6.9,29.7c-2.8,21.2,0.2,43,9.2,66.6c7.6,19.9,20.2,37.5,38.6,53.9c22.6,20.1,48.8,30.4,77.7,30.4
		c0.3,0,0.6,0,0.9,0c7.5,0,18.1,0,27-2.2c19.5-4.8,31.8-15.5,42.8-25.9c15.3-14.5,25.7-32.7,31.1-54.3
		C735,206.7,735.3,187.5,731.2,168.6z M706.4,237.1c-6.1,14.1-15.5,25.9-27.9,35.1c-11.4,8.5-24.2,13.6-39.3,15.7
		c-15.1,2.1-30.1,0.3-44.6-5.2c-23.5-9-42.5-25.2-56.4-48.1c-11-18.1-16.8-37.9-17.4-58.8c-0.4-14.4,1.9-28.3,6.9-41.3
		c4.7-12.4,11.7-23.1,20.7-31.9c12.4-12.1,27.1-19.8,43.6-22.9c5.6-1,11.2-1.6,16.8-1.6c11.6,0,23.1,2.2,34.4,6.7
		c10.4,4.1,20.5,10.2,29.8,18.1c9.2,7.8,25.1,32.2,32.5,44.3c5.6,13.1,8.7,25.7,9.5,38.7C716,204.6,713.3,221.4,706.4,237.1z"/>
	<g>
		<path class="st8" d="M642.6,121.9c-13.9,6.3-17.9,27.3-9,46.8c8.9,19.5,26.8,31.6,40.6,25.3c13.9-6.3,18.4-28.6,9.5-48.1
			C674.9,126.4,656.5,115.6,642.6,121.9z"/>
		<path class="st9" d="M666.4,198.9c-5.2,0-10.7-1.7-16-5.1c-8.1-5.1-15-13.6-19.7-23.7c-4.6-10.1-6.1-20.8-4.3-30.3
			c1.9-9.9,7.2-17.3,14.9-20.8c15.5-7,35.9,4.4,45.5,25.6c4.6,10,6,21,4,31c-2,10.1-7.5,17.9-15.1,21.4
			C672.7,198.3,669.6,198.9,666.4,198.9z M645.9,129.2c-5,2.3-8.4,7.2-9.7,14c-1.4,7.1-0.2,15.3,3.3,22.9c3.6,7.8,8.9,14.3,15,18.2
			c5.9,3.7,11.7,4.6,16.6,2.4c4.9-2.2,8.6-7.5,10-14.6c1.5-7.4,0.4-15.9-3.1-23.5C670.9,133.1,656.5,124.4,645.9,129.2L645.9,129.2z
			"/>
	</g>
</g>
<path class="st0" d="M482.4,690.1H250.6c-6.6,0-12-5.4-12-12v-68.2c0-6.6,5.4-12,12-12h231.8c6.6,0,12,5.4,12,12v68.2
	C494.4,684.7,489,690.1,482.4,690.1z"/>
<path class="st10" d="M602.2,464.8c0,0,0-0.1,0-0.2c0,0.1,0,0.2-0.1,0.3C602.2,464.9,602.2,464.8,602.2,464.8z"/>
<path class="st10" d="M478.9,309.3c-35.5-4.4-56.9-34.9-55.8-66.4c0.3-9.4,3-18.4,7.8-26.7c0.4-0.8,0.7-1.7,1.8-1.7
	c-0.5,8.4-1.2,16.8,0,25.3c3.9,27.6,17.2,49.4,39.9,65.5C474.5,306.8,476.8,307.9,478.9,309.3z M569.1,450.3
	c5.4-6.4,6.7-13.8,3.1-21.5c-6.2-13.5-12.9-26.9-19.3-40.4c-3.2-6.7-6.8-12.8-14.6-14.8c-0.6-0.2-1.2-0.5-1.8-0.7
	c-1-0.1-2-0.2-3-0.3c-0.9,0.5-1.8,0.4-2.7,0c-0.7,0-1.3,0-2,0c-8.1,2.2-13.8,6.8-16.2,15.1c-2,6.9,0.6,12.9,3.6,18.8
	c2.6,5.3,5.1,10.6,7.7,15.9c0.5,1,1.1,2.2-0.4,2.9c-9.8,4.5-19,10-29.3,13.5c-0.3,1-1.2,1.2-2,1.6c-14.3,6.9-28.6,13.9-42.9,20.9
	c-24.4,11.8-48.6,23.8-73.1,35.2c-14,6.5-25.6,14.7-28.4,31c-2.6,14.4,1.5,26.9,12.8,36.3c11.3,9.4,24.6,12.2,38.2,6.3
	c17.4-7.5,34.2-16.3,51.2-24.5c14.6-7,29.3-14,44-21c16.6-8.1,33.2-16.2,49.8-24.3c12.6-6.1,25.2-12.1,37.8-18.1
	c-4.3-9.2-8.6-18.4-13.1-27.5C567.8,453.1,567.6,452.1,569.1,450.3z M665,465.3c-6.7,3.4-13.4,6.7-20.2,10.1
	c-0.6,0.1-1.3,0.1-1.4,0.8c0,0-0.1,0-0.1,0c-1.1,0.2-2,0.5-3,1.1c-6.5,3.9-15.1-0.2-16.6-7.7c-0.7-3.7,0.5-6.8,2.3-10
	c-10.5,1.4-16.9-2.2-18.8-10.5c-1.3-5.7,1.5-9.9,4.7-14.1c-0.2-0.1-0.4-0.2-0.5-0.2c-9.5-0.1-15.9-4.3-17.5-11.3
	c-2-9.2,1.1-15.4,10.2-19.9c4.7-2.3,9.3-4.6,14-6.9c1-0.5,2.7-0.8,1.9-2.5c-0.9-1.6-0.9-4.3-3.4-4.3c-3.2,0-6.5,0.2-9.4,1.8
	c-9.7,1.1-19.9,4-27.2-5.9c-3.9-8.5-2.9-16.1,4.7-22.2c3.3-2.2,7.3-2.3,10.9-3.6c2.1-0.2,4.3-0.3,6.4-0.5c11-1.8,22-3.6,33-5.3
	c5.8-0.9,12.8,3.2,15.4,8.6c3.3,6.8,2.3,13.7-2.8,18.8c-0.6,0.6-1.5,0.9-1.5,2.2c8.8,0.4,15.4,4.2,17.3,13.2
	c1.8,8.5-2.3,14.6-10.7,18.8c7.4,0.8,12.6,3.8,14.7,10.5c2.1,6.9-1,12-6.5,16.3c7.8,1.1,11.2,4,12.4,10.1
	C673.9,457.9,671.3,462.1,665,465.3z M612.2,434.8c0,0,0-0.1,0-0.2c0,0.1,0,0.2-0.1,0.3C612.2,434.9,612.2,434.8,612.2,434.8z"/>
<path class="st0" d="M243.9,128.3c-4.4,0-8,3.6-8,8v38.8c0,4.4,3.6,8,8,8H423v-54.9H243.9z M390.3,166.7c-16.2,0-32.4,0-48.6,0
	c-4,0-7.5-3.1-7-6.8c0.5-3.9,2.8-6,7.1-5.9c8.1,0.1,16.3,0,24.5,0c8,0,16.1,0,24.1,0c4.2,0,6.7,1.4,6.5,6.3
	C396.7,164.9,394.6,166.7,390.3,166.7z M612,435c-3.2,4.1-6.1,8.4-4.8,14.1c1.9,8.3,8.3,12,18.8,10.5c-1.9,3.2-3.1,6.4-2.3,10
	c1.5,7.5,10.1,11.5,16.6,7.7c1-0.6,1.9-0.9,3-1.1c-2,3.6-5.4,5.3-9,6.8c-3.1,1.3-6,2.8-9,4.2c-2-1.3-4.1-0.1-6.2-0.2
	c-10.5-0.4-16.3-6.8-20.5-15.2c-6.7-13.4-13-27-19.6-40.6c-7.5-15.5-15.1-30.9-22.6-46.4c-9.1-19-18.1-38.2-27.2-57.2
	c-5-10.3-10.2-20.4-15.2-30.7c-0.7-1.5-2.8-3.5-0.8-5c2-1.5,4.8-2.7,6.9,0.5c0.9,1.3,2.2,2.3,3.3,3.3c0.7,0.6,1.7,1.4,2.3,0.5
	c2.7-4.3,4-0.9,5.7,0.8c11.6,12.1,25.7,15.6,41.9,12.3c1.6-0.3,3.3-0.4,5-0.5c5.2,10.6,10.3,21.2,15.5,31.7
	c2.4,4.9,4.7,9.8,7.2,14.7c0.7,1.4,1.4,2.8,0.9,4.4c-2.1,0.2-4.3,0.3-6.4,0.5c-1.5-2.2-3.1-4.3-4.5-6.5
	c-5.8-8.6-11.5-17.3-17.3-25.9c0-0.9-0.2-1.6-1.1-1.9c0,0,0,0.1,0,0.1c-0.3-2.9-0.9-5.4-4.7-3.7c-5.4,2.5-10.8,5.3-16.2,7.8
	c-2,0.9-2.3,2.2-1.5,4c6.3,13.1,12.7,26.2,19,39.4c5.1,10.5,10.1,21.1,15.1,31.6c0.8,1.7,1.6,2.4,3.5,1.4c5.1-2.7,10.1-5.6,15.5-7.8
	c3.1-1.2,3.8-2.6,2.6-5.4c0.4-0.5,0.8-1,1.2-1.5c2.9-1.6,6.2-1.8,9.4-1.8c2.5,0,2.6,2.7,3.4,4.3c0.9,1.7-0.9,2-1.9,2.5
	c-4.6,2.3-9.3,4.6-14,6.9c-9.1,4.5-12.2,10.8-10.2,19.9c1.6,7,8,11.2,17.5,11.3C611.7,434.8,611.9,435,612,435L612,435z"/>
</svg>
