<?xml version="1.0" encoding="utf-8"?>
<!-- Generator: Adobe Illustrator 22.1.0, SVG Export Plug-In . SVG Version: 6.00 Build 0)  -->
<svg version="1.1" id="artwork" xmlns="http://www.w3.org/2000/svg" xmlns:xlink="http://www.w3.org/1999/xlink" x="0px" y="0px"
	 viewBox="0 0 752.1 755" style="enable-background:new 0 0 752.1 755;" xml:space="preserve">
<style type="text/css">
	.st0{fill:#D5BEFD;}
	.st1{fill:#C9D7ED;}
	.st2{fill:#A9EBC8;}
	.st3{fill:#9FC3FD;}
	.st4{fill:#FDDE9F;}
	.st5{fill:#111419;}
	.st6{fill:#E2E2E2;}
	.st7{fill:#1D2430;}
	.st8{fill:#00BA4B;}
	.st9{fill:#FFFFFF;}
	.st10{fill:#717791;}
	.st11{fill:#3B414F;}
	.st12{fill:#E5EEFD;}
	.st13{fill:#FC3847;}
</style>
<g>
	<g>
		<path class="st0" d="M601.7,498.8c-9.3-6-12-18.5-6-27.8c6-9.3,18.5-12,27.8-6c9.3,6,12,18.5,6,27.8
			C623.5,502.1,611,504.8,601.7,498.8z M622.1,467.3c-8.1-5.2-18.9-2.9-24.1,5.2c-5.2,8.1-2.9,18.9,5.2,24.1
			c8.1,5.2,18.9,2.9,24.1-5.2C632.5,483.3,630.2,472.5,622.1,467.3z"/>
	</g>
	<g>
		<g>
			<path class="st1" d="M337.7,124.9c-0.4-0.3-0.7-0.6-0.9-1.1c-0.4-1.2,0.2-2.4,1.3-2.9l57.3-21c1.2-0.4,2.4,0.2,2.9,1.3
				c0.4,1.2-0.2,2.4-1.3,2.9l-57.3,21C339,125.3,338.3,125.2,337.7,124.9z"/>
		</g>
		<g>
			<path class="st1" d="M376.9,143c-0.4-0.3-0.7-0.6-0.9-1.1l-21-57.3c-0.4-1.2,0.2-2.4,1.3-2.9c1.2-0.4,2.4,0.2,2.9,1.3l21,57.3
				c0.4,1.2-0.2,2.4-1.3,2.9C378.2,143.5,377.5,143.4,376.9,143z"/>
		</g>
	</g>
	<g>
		<path class="st2" d="M119.2,395.9c-0.6-0.4-0.9-1.1-0.7-1.8l9.6-30.3c0.1-0.4,0.4-0.7,0.8-0.9c0.4-0.2,0.8-0.2,1.2-0.1l30.3,9.6
			c0.8,0.3,1.3,1.2,1,2l-9.6,30.3c-0.1,0.4-0.4,0.7-0.8,0.9c-0.4,0.2-0.8,0.2-1.2,0.1l-30.3-9.6C119.5,396,119.4,396,119.2,395.9z
			 M130.7,366.3l-8.6,27.2l27.2,8.6l8.6-27.2L130.7,366.3z"/>
	</g>
	<g>
		<path class="st3" d="M616.2,332.4c-0.7-0.4-0.9-1.3-0.6-2l13.2-28.9c0.4-0.8,1.3-1.2,2.1-0.8l28.9,13.2c0.8,0.4,1.2,1.3,0.8,2.1
			l-13.2,28.9c-0.4,0.8-1.3,1.2-2.1,0.8l-28.9-13.2C616.3,332.5,616.3,332.4,616.2,332.4z M631.1,304.3l-11.9,26l26,11.9l11.9-26
			L631.1,304.3z"/>
	</g>
	<g>
		<path class="st1" d="M246.6,292.8c-0.3-0.2-0.5-0.5-0.6-0.8c-0.1-0.4-0.1-0.8,0-1.2l7.7-16.9c0.4-0.8,1.3-1.2,2.1-0.8l16.9,7.7
			c0.8,0.4,1.2,1.3,0.8,2.1l-7.7,16.9c-0.4,0.8-1.3,1.2-2.1,0.8l-16.9-7.7C246.8,292.9,246.7,292.8,246.6,292.8z M256,276.7
			l-6.4,13.9l13.9,6.4l6.4-13.9L256,276.7z"/>
	</g>
	<g>
		<path class="st1" d="M348.2,549.4c-0.5-0.3-0.8-1-0.7-1.6l0.1-0.7c1.8-12.1-0.9-24.5-7.5-34.8l-0.4-0.6c-0.3-0.5-0.3-1.2,0-1.7
			c0.3-0.5,1-0.8,1.6-0.7l0.7,0.1c12.1,1.8,24.5-0.9,34.8-7.5l0.6-0.4c0.5-0.3,1.2-0.3,1.7,0c0.5,0.3,0.8,1,0.7,1.6l-0.1,0.7
			c-1.8,12.1,0.9,24.5,7.5,34.8l0.4,0.6c0.3,0.5,0.3,1.2,0,1.7c-0.3,0.5-1,0.8-1.6,0.7l-0.7-0.1c-12.1-1.8-24.5,0.9-34.8,7.5
			l-0.6,0.4C349.4,549.7,348.7,549.7,348.2,549.4z M344.2,512.8c5.6,9.7,8,20.9,6.9,32c9.7-5.6,20.9-8,32-6.9
			c-5.6-9.7-8-20.9-6.9-32C366.5,511.5,355.3,513.9,344.2,512.8z"/>
	</g>
	<g>
		<path class="st1" d="M527.6,366.3C527.6,366.3,527.6,366.3,527.6,366.3c-0.5-0.3-0.8-1-0.7-1.6l0.1-0.5c1.3-8.7-0.6-17.5-5.4-24.9
			l-0.3-0.4c-0.3-0.5-0.3-1.2,0-1.7c0.3-0.5,1-0.8,1.6-0.7l0.5,0.1c8.7,1.3,17.5-0.6,24.9-5.4l0.4-0.3c0.5-0.3,1.2-0.3,1.7,0
			c0,0,0,0,0,0c0.5,0.3,0.8,1,0.7,1.6l-0.1,0.5c-1.3,8.7,0.6,17.5,5.4,24.9l0.3,0.4c0.3,0.5,0.3,1.2,0,1.7c-0.3,0.5-1,0.8-1.6,0.7
			l-0.5-0.1c-8.7-1.3-17.5,0.6-24.9,5.4l-0.4,0.3C528.8,366.6,528.1,366.6,527.6,366.3z M525.7,340c3.7,6.7,5.3,14.3,4.7,21.9
			c6.7-3.7,14.3-5.3,21.9-4.7c-3.7-6.7-5.3-14.3-4.7-21.9C540.9,339,533.3,340.6,525.7,340z"/>
	</g>
	<g>
		<path class="st4" d="M486.2,662.6c-0.2-0.1-0.4-0.3-0.5-0.6l-0.3-0.6c-6.2-11.5-16.4-20.3-28.6-24.8l-0.7-0.2
			c-0.6-0.2-1-0.8-1-1.4c0-0.6,0.3-1.2,0.8-1.5l0.6-0.3c11.5-6.2,20.3-16.4,24.8-28.6l0.2-0.7c0.2-0.6,0.8-1,1.4-1
			c0.6,0,1.2,0.3,1.5,0.8l0.3,0.6c6.2,11.5,16.4,20.3,28.6,24.8l0.7,0.2c0.6,0.2,1,0.8,1,1.4c0,0.6-0.3,1.2-0.8,1.5l-0.6,0.3
			c-11.5,6.2-20.3,16.4-24.8,28.6l-0.2,0.7c-0.2,0.6-0.8,1-1.4,1C486.8,662.9,486.5,662.8,486.2,662.6z M468.9,639.1
			c7.3,4.7,13.4,11,17.9,18.4c4.7-11,12.7-20.3,23-26.5c-11-4.7-20.3-12.7-26.5-23c-4.7,11-12.7,20.3-23,26.5
			C463.3,635.8,466.2,637.3,468.9,639.1z"/>
	</g>
</g>
<g>
	<polygon class="st5" points="202.8,165.3 107.5,165.3 116.8,118.7 193.4,118.7 	"/>
	<path class="st6" d="M208.2,136.7l-9.9-5.5l-2.5-12.5c0-0.5,0-0.9-0.3-1.3c-0.4-0.7-1.2-1.2-2-1.2h-76.8c-0.9,0-1.6,0.5-2,1.2
		c-0.2,0.5-0.3,1-0.2,1.4l-3,15l-5.1,2.8c-0.9,0.5-1.4,1.6-1.1,2.6c0.3,1,1.2,1.7,2.2,1.7l2.6,0l-4.8,23.8c-0.1,0.7,0,1.4,0.5,1.9
		c0.4,0.5,1.1,0.8,1.8,0.8h95.3c0.7,0,1.3-0.3,1.8-0.8c0.4-0.5,0.6-1.2,0.5-1.9l-4.8-23.9l6.9,0c1,0,2-0.7,2.2-1.7
		C209.6,138.2,209.1,137.2,208.2,136.7z M126.1,128.1l-5-7.1h68.2l-3.5,5.9c-0.3,0.5-0.4,1.2-0.2,1.8c0.2,0.6,0.6,1.1,1.1,1.4
		l7.4,4.1l0.4,2.2l-78.3,0l9-5c0.6-0.3,1-0.9,1.1-1.5C126.6,129.3,126.5,128.6,126.1,128.1z M191.1,127.2l1.3-2.2l0.7,3.3
		L191.1,127.2z M118,124.4l2.9,4.2l-4.2,2.3L118,124.4z M200,163h-89.7l4.4-22l80.9,0L200,163z"/>
	<g>
		<g>
			<path class="st7" d="M96.9,241.4c-1.1-1.3-1.8-3-1.6-4.8l8.4-93.5c0.2-2.5,2.3-4.4,4.8-4.4h98.1c1.3,0,2.4,1,2.6,2.3l8.4,95.1
				c0.3,3.2-2.2,6-5.5,6H101.7"/>
			<path class="st6" d="M95.2,243c-1.1-1-1.9-2.4-2.4-3.9c-0.2-0.8-0.3-1.6-0.3-2.3l0-1.8c0-2.2,0.1-4.4,0.1-6.6
				c0.1-2.2,0.1-4.4,0.2-6.6c0.1-2.2,0.2-4.4,0.3-6.6c0.5-8.8,1.3-17.6,2-26.4l2.2-26.4l1.1-13.2l0.6-6.7c0.2-2.1,1.2-4.2,2.7-5.7
				c1.5-1.5,3.6-2.5,5.7-2.7l53.3-0.3l26.4-0.1l13.2-0.1l3.3,0l1.7,0l0.8,0h0.2l0.6,0c0.4,0,0.8,0.1,1.2,0.2
				c1.6,0.4,3.1,1.3,4.1,2.6c0.5,0.6,0.9,1.4,1.2,2.1c0.1,0.4,0.3,0.8,0.3,1.2c0,0.2,0.1,0.4,0.1,0.6l0,0.4l0.3,3.3l4.7,52.7
				l2.3,26.3l0.6,6.6l0.3,3.3l0.1,1.6c0,0.6,0.1,0.8,0.1,2.1c0,4.3-2.8,8.3-6.8,9.8c-1,0.4-2,0.6-3.1,0.7l-0.7,0l-0.4,0l-0.8,0
				l-3.3,0l-52.9-0.3c-8.8-0.1-17.6,0-26.4-0.4c-4.4-0.2-8.8-0.5-13.2-1c-4.4-0.4-8.8-1.1-13.2-2c-0.7-0.1-1.1-0.8-1-1.5
				c0.1-0.5,0.5-0.9,1-1c4.4-0.9,8.8-1.5,13.2-2c4.4-0.5,8.8-0.8,13.2-1c8.8-0.5,17.6-0.4,26.4-0.4l52.9-0.3l3.3,0l0.8,0l0.4,0
				c0.1,0,0.1,0,0.1,0c0.1,0,0.1,0,0.1,0c0.2-0.1,0.3-0.3,0.3-0.5l-1.2-12.7l-2.4-26.3l-4.7-52.7l-0.3-3.3c0-0.3,0,0.1,0,0.1
				c0,0.1,0.1,0.3,0.1,0.4c0.1,0.3,0.2,0.5,0.4,0.7c0.3,0.4,0.8,0.7,1.4,0.9c0.1,0,0.3,0.1,0.4,0.1c0.1,0,0.1,0,0.2,0l-0.2,0l-0.8,0
				l-1.7,0l-3.3,0l-13.2-0.1l-26.4-0.1l-52.5-0.3c-0.1,0-0.2,0.1-0.2,0.2l-0.6,6.5l-1.2,13.2l-2.5,26.3c-0.8,8.8-1.6,17.6-2.7,26.3
				c-0.2,2.2-0.5,4.4-0.8,6.6c-0.3,2.2-0.6,4.4-0.9,6.6c-0.3,2.2-0.7,4.4-1,6.5l-0.3,1.5c-0.1,0.3-0.1,0.6-0.1,0.9
				c0,0.6,0.2,1.3,0.6,1.9l0.1,0.2c0.7,1.1,0.4,2.5-0.7,3.2C97.1,243.9,95.9,243.7,95.2,243z"/>
		</g>
		<path class="st8" d="M179.1,155.7c2.1-0.4,4.5,0.4,6,2.5l0,0c0.2,0.2,0.5,0.4,0.8,0.3c0.4-0.1,0.7-0.5,0.6-1
			c-0.3-1.6-1.4-3.2-2.8-4.2c-1.5-1-3.4-1.5-5.2-1.3c-1.9,0.2-3.6,1-5,2.3c-1.4,1.3-2.3,3.1-2.6,5c-0.3,1.9,0.1,3.9,1.1,5.6
			c1,1.7,2.6,3,4.4,3.7c0.5,0.2,1.1,0.4,1.7,0.5v2.3c0,13.3-12.3,20.5-23.9,20.5c-12.8,0-21.3-8.2-21.3-20.5v-2.3
			c0.4-0.1,0.9-0.2,1.3-0.3c1.8-0.7,3.3-2.1,3.9-3.8c0.1-0.3,0.1-0.6-0.1-0.9c-0.3-0.6-1.1-0.8-1.7-0.5l-0.1,0.1
			c-1.2,0.6-2.2,0.9-3.2,1.1c0,0,0,0-0.1,0V161c0-1.3-1-2.3-2.3-2.3c-1.3,0-2.3,1-2.3,2.3v2.1c-0.7-0.9-1.1-2-1-3.1
			c0.1-1.9,1.6-3.8,3.7-4.2c2.1-0.4,4.5,0.4,6,2.5l0,0c0.2,0.2,0.5,0.4,0.8,0.3c0.4-0.1,0.7-0.5,0.6-1c-0.3-1.6-1.4-3.2-2.8-4.2
			c-1.5-1-3.4-1.5-5.2-1.3c-1.9,0.2-3.6,1-5,2.3c-1.4,1.3-2.3,3.1-2.6,5c-0.3,1.9,0.1,3.9,1.1,5.6c0.9,1.7,2.5,3,4.3,3.7v2.8
			c0,14.8,10.7,25.1,25.9,25.1c15.9,0,28.4-11,28.4-25.1v-2.9c1.6-0.7,2.8-2,3.3-3.6c0.1-0.3,0.1-0.6-0.1-0.9
			c-0.3-0.6-1.1-0.8-1.7-0.5l-0.1,0.1c-0.5,0.3-1,0.5-1.4,0.6V161c0-1.3-1-2.3-2.3-2.3c-1.3,0-2.3,1-2.3,2.3v3.5
			c-1.7-0.7-3-2.6-2.8-4.6C175.5,158,177,156.1,179.1,155.7z"/>
	</g>
</g>
<g>
	<g>
		<path class="st8" d="M222.7,611.5c-0.8,0-1.6,0-2.4-0.2c-4.2-0.6-7.9,0.6-11.3,3c-5.3,3.8-5.4,3.8-10.8,0c-3.5-2.5-7.2-3.5-11.5-3
			c-6,0.7-6.3,0.5-8.9-5.1c-1.8-4.1-4.7-6.9-8.8-8.8c-5.6-2.5-5.8-2.8-5.1-8.9c0.5-4.4-0.6-8.1-3.1-11.7c-3.7-5.2-3.7-5.3,0-10.5
			c2.5-3.5,3.6-7.3,3.1-11.7c-0.7-6-0.5-6.4,5.1-8.9c4.1-1.8,6.9-4.7,8.8-8.8c2.5-5.6,2.9-5.8,9-5.1c4.2,0.5,7.9-0.5,11.3-3
			c5.4-3.8,5.4-3.8,10.8,0c3.5,2.5,7.2,3.5,11.5,3c6.1-0.7,6.5-0.5,9,5.1c1.8,4,4.6,6.9,8.6,8.6c5.6,2.5,5.9,2.9,5.2,9
			c-0.5,4.4,0.6,8.1,3.1,11.6c3.6,5.1,3.6,5.4,0,10.4c-2.6,3.6-3.7,7.4-3.1,11.8c0.7,5.9,0.4,6.4-5.1,8.8c-4,1.8-7,4.6-8.6,8.6
			c-0.3,0.7-0.7,1.3-0.9,2C227.5,610.8,225.7,612.2,222.7,611.5z"/>
	</g>
	<path class="st7" d="M183.3,592.5c0.3,0.5,1,0.6,1.5,0.3c4-2.6,7.5-5.8,10.8-9c3.4-3.3,6.6-6.7,9.8-10c6.5-6.8,13-13.5,19.4-20.3
		c0.5-0.6,0.6-1.5,0-2.1c-0.6-0.6-1.6-0.7-2.2-0.1c-6.9,6.4-13.5,13-20.3,19.4c-3.4,3.3-6.8,6.5-10,9.8c-3.2,3.4-6.4,6.8-9,10.8
		C183,591.7,183,592.1,183.3,592.5z M196.3,565c4.4-4.4,4.4-11.5,0-15.9l0,0c-2.1-2.1-4.9-3.3-7.9-3.3c-3,0-5.8,1.2-7.9,3.3
		c-4.4,4.4-4.4,11.5,0,15.9c2.1,2.1,4.9,3.3,7.9,3.3C191.4,568.3,194.2,567.1,196.3,565z M226.8,595.2c2.1-2.1,3.3-4.9,3.3-7.9
		c0-3-1.2-5.8-3.3-7.9c0,0,0,0,0,0l0,0c-2.1-2.1-4.9-3.3-7.9-3.3c-3,0-5.8,1.2-7.9,3.3c-2.1,2.1-3.3,4.9-3.3,7.9
		c0,3,1.2,5.8,3.3,7.9c2.2,2.2,5.1,3.3,7.9,3.3S224.7,597.3,226.8,595.2z"/>
	<path class="st6" d="M256.3,580.2c-0.5,2.3-1.1,4.2-1.5,6.3c-0.4,2-0.5,4.1-0.2,6.3c0.1,1.2,0.3,2.3,0.3,3.6c0,1.2,0,2.8-0.9,4.4
		c-1,1.5-2.3,2.3-3.4,2.9c-1.1,0.6-2.2,1.1-3.3,1.6c-4,1.7-7.2,4.5-9.2,8.2c-0.2,0.5-0.5,0.9-0.7,1.4l-0.7,1.6c-0.5,1-1,2.3-1.8,3.5
		c-0.8,1.2-2.1,2.3-3.7,2.8c-1.6,0.5-3.1,0.4-4.5,0.1l0.3,0c-1.4-0.1-3-0.2-4.2-0.3c-1.2-0.1-2.4-0.1-3.6,0.1
		c-2.4,0.3-4.7,1.3-6.8,2.7c-1,0.7-2.2,1.5-3.3,2.3c-1.2,0.8-2.4,1.7-4.4,2.1c-1,0.2-2.2,0.1-3.1-0.2c-0.9-0.3-1.6-0.7-2.2-1.1
		c-1.3-0.8-2.4-1.6-3.5-2.4c-2.1-1.5-4.3-2.5-6.7-3.1c-1.2-0.3-2.4-0.4-3.6-0.4c-1.3,0-2.4,0.1-3.9,0.3c-1.4,0.1-2.8,0.3-4.6,0.1
		c-0.9-0.1-2-0.4-2.8-1c-0.9-0.6-1.5-1.4-2-2.1c-1.7-2.7-2.5-5.3-3.8-7.3c-1.3-2.1-3-3.9-5.1-5.3c-1-0.7-2.1-1.3-3.3-1.8
		c-1.3-0.6-2.5-1.1-3.9-1.9c-0.7-0.4-1.4-0.8-2.1-1.5c-0.7-0.7-1.4-1.7-1.6-2.7c-0.5-2-0.3-3.4-0.2-4.9l0.2-2.1
		c0.1-0.6,0.1-1.2,0.1-1.9c0-1.2-0.1-2.5-0.3-3.6c-0.4-2.4-1.4-4.7-2.8-6.8c-0.7-1-1.6-2.2-2.3-3.4c-0.4-0.6-0.8-1.3-1.2-2
		c-0.4-0.8-0.7-1.7-0.8-2.8c0-1.1,0.3-2.2,0.6-2.9c0.4-0.8,0.8-1.5,1.2-2.1c0.8-1.2,1.7-2.4,2.4-3.4c1.4-2.1,2.4-4.3,2.9-6.7
		c0.2-1.2,0.3-2.4,0.3-3.7c0-0.6,0-1.2-0.1-1.9l-0.2-2.1c-0.1-1.4-0.3-2.9,0-4.7c0.2-0.9,0.7-2,1.4-2.8c0.7-0.8,1.4-1.2,2.1-1.7
		c1.4-0.8,2.7-1.4,3.9-1.9c1.2-0.5,2.3-1.1,3.3-1.8c2.1-1.4,3.8-3.1,5.2-5.2c0.7-1.1,1.2-2.1,1.8-3.3c0.6-1.3,1.1-2.5,2-3.9
		c0.4-0.7,0.9-1.4,1.7-2.1c0.8-0.7,1.9-1.1,2.8-1.3c1.8-0.3,3.3-0.1,4.7,0l2.1,0.2c0.6,0.1,1.2,0.1,1.9,0.1c1.2,0,2.5-0.1,3.6-0.3
		c2.4-0.5,4.7-1.5,6.7-3c1.1-0.8,2.2-1.6,3.5-2.4c0.6-0.4,1.3-0.8,2.1-1.1c0.8-0.3,1.9-0.6,2.9-0.5c1.1,0.1,2,0.5,2.7,0.8
		c0.7,0.4,1.4,0.8,2,1.2l3.4,2.3c2.1,1.4,4.4,2.4,6.8,2.8c1.2,0.2,2.4,0.3,3.7,0.2c1.2,0,2.6-0.3,4-0.4c1.4-0.1,2.9-0.3,4.9,0.3
		c1,0.3,1.9,0.9,2.5,1.6c0.6,0.7,1.1,1.4,1.4,2.1c0.7,1.3,1.3,2.6,1.9,3.9c0.5,1.2,1.1,2.3,1.8,3.3c1.4,2.1,3.2,3.7,5.3,5.1
		c2,1.4,4.7,2.4,7,4.4c0.4,0.4,0.5,1.1,0.1,1.5c-0.3,0.4-0.8,0.4-1.2,0.3l-0.1,0c-2.3-1-5-1.5-7.7-3.1c-2.6-1.5-4.8-3.6-6.6-6.1
		c-0.9-1.2-1.6-2.5-2.2-3.9c-0.6-1.2-1.1-2.5-1.7-3.5c-0.3-0.5-0.6-1-0.9-1.3c-0.3-0.3-0.6-0.5-0.9-0.6c-0.7-0.2-2-0.2-3.3-0.1
		c-1.3,0.1-2.6,0.3-4.2,0.4c-1.5,0.1-3,0-4.5-0.3c-3-0.5-5.9-1.7-8.3-3.3l-3.4-2.3c-1.1-0.7-2.2-1.3-2.8-1.4c-0.5-0.1-1.5,0.3-2.6,1
		c-1.1,0.7-2.2,1.5-3.3,2.3c-2.4,1.7-5.2,3-8.2,3.7c-1.5,0.3-3,0.4-4.5,0.4c-0.8,0-1.5-0.1-2.2-0.1l-2-0.2c-1.3-0.1-2.6-0.2-3.5-0.1
		c-0.4,0.1-0.7,0.2-0.9,0.4c-0.3,0.2-0.6,0.6-0.9,1.1c-0.6,1-1.2,2.2-1.7,3.4c-0.6,1.3-1.3,2.7-2.1,3.9c-1.6,2.5-3.8,4.8-6.3,6.4
		c-1.2,0.8-2.6,1.5-3.9,2.1c-1.2,0.6-2.5,1.1-3.5,1.7c-0.5,0.3-0.9,0.6-1.1,0.9c-0.2,0.3-0.3,0.5-0.4,0.9c-0.2,0.8-0.1,2.2,0,3.5
		l0.2,2c0.1,0.7,0.1,1.5,0.1,2.2c0,1.5-0.1,3-0.4,4.5c-0.6,3-1.9,5.8-3.5,8.3c-0.8,1.2-1.6,2.3-2.3,3.3c-0.7,1.1-1.1,2.1-1.1,2.5
		c0,0.5,0.6,1.6,1.3,2.6c0.7,1.1,1.5,2.1,2.3,3.4c1.6,2.5,2.9,5.4,3.4,8.4c0.3,1.5,0.4,3,0.3,4.5c0,0.7-0.1,1.5-0.2,2.2l-0.2,2
		c-0.1,1.3-0.2,2.6,0,3.3c0.1,0.3,0.2,0.5,0.5,0.8c0.3,0.3,0.7,0.6,1.2,0.9c1,0.6,2.3,1.1,3.5,1.7c1.4,0.6,2.7,1.3,3.9,2.2
		c2.5,1.7,4.6,4,6.2,6.5c1.7,2.6,2.5,5.4,3.8,7.3c0.3,0.5,0.6,0.8,0.8,0.9c0.3,0.2,0.5,0.3,1,0.3c0.9,0.1,2.3,0,3.6-0.1
		c1.3-0.1,2.9-0.3,4.3-0.3c1.5,0,3,0.2,4.5,0.5c3,0.7,5.8,2,8.2,3.7c1.1,0.8,2.2,1.6,3.3,2.2c0.5,0.3,1,0.6,1.4,0.7
		c0.4,0.1,0.7,0.1,1,0.1c0.7-0.1,1.8-0.8,2.9-1.5c1.1-0.7,2.2-1.5,3.4-2.3c2.5-1.6,5.4-2.8,8.4-3.2c1.5-0.2,3.1-0.3,4.6-0.1
		c1.6,0.2,2.7,0.2,4,0.3c0.1,0,0.2,0,0.3,0c1.9,0.4,3,0.1,4-1.3c0.5-0.7,0.8-1.6,1.4-2.7l0.7-1.6c0.2-0.6,0.5-1.2,0.8-1.7
		c1.2-2.2,2.8-4.3,4.7-6c1.9-1.7,4.1-3,6.4-3.9c1-0.5,2.1-0.9,3-1.4c0.9-0.5,1.6-1,1.9-1.5c0.6-0.8,0.3-3.4,0.1-5.6
		c-0.3-2.4-0.3-5,0.3-7.5c0.5-2.5,1.7-4.9,3.6-6.5c0.4-0.4,1.1-0.3,1.5,0.1C256.3,579.6,256.3,579.9,256.3,580.2L256.3,580.2z
		 M252.9,551.3c-0.6-0.5-1.4-0.4-1.8,0.2c-0.8,1-1.2,2-1.5,3.1c-0.3,1.1-0.5,2.2-0.5,3.4c0,0.5,0.3,1.1,0.8,1.3
		c0.8,0.5,1.8,0.2,2.2-0.6c0.6-1,0.9-2.1,1.2-3.2c0.2-1.1,0.4-2.2,0.1-3.5C253.3,551.8,253.2,551.5,252.9,551.3z"/>
</g>
<g>
	<path class="st8" d="M612.1,243.7l-53.5-16.9c-2.7-0.8-5-2.5-6.7-4.8l-19-30.7c-6.2-8.5-2.4-20.5,7.5-23.9l33.1-14.2
		c2.7-0.9,5.5-0.9,8.2-0.1l84.2,26.6c5.6,1.8,8.8,7.8,7,13.5l-16.8,53.2c-1.8,5.6-7.8,8.8-13.5,7l-4.6-1.4"/>
	<path class="st9" d="M675.5,186.6c-0.6-2.3-1.9-4.5-3.7-6.2c-0.9-0.8-1.9-1.5-3-2.1c-0.5-0.3-1.1-0.5-1.7-0.7
		c-0.6-0.2-1-0.3-1.5-0.5l-45.5-14.4l-22.8-7.2l-11.4-3.6l-2.8-0.9c-0.9-0.3-2.2-0.7-3.3-0.8c-2.3-0.3-4.7,0-7,0.7
		c-0.1,0-0.1,0-0.2,0.1l-33.1,14.2l0.2-0.1c-2.6,0.9-5.1,2.4-7,4.4c-2,2-3.4,4.5-4.3,7.1c-0.7,2.1-0.9,4.3-0.8,6.5
		c-2.9-1.6-5.2-3.9-6.8-6.9c-2-3.9-2.4-8.4-1.1-12.7c1.3-4.2,4.2-7.7,8.2-9.7c3.9-2,8.4-2.4,12.7-1.1c1.8,0.6,3.4,1.4,4.9,2.5
		c1,0.8,2.5,0.6,3.3-0.5c0.8-1,0.6-2.5-0.5-3.3c-1.9-1.4-4-2.5-6.2-3.2c-5.4-1.7-11.2-1.2-16.3,1.4c-5.1,2.6-8.8,7.1-10.5,12.5
		c-1.7,5.4-1.2,11.2,1.4,16.3c2.6,5,6.9,8.7,12.3,10.4c0.6,1.4,1.3,2.6,2.1,3.8l-0.1-0.1l19,30.7c0,0,0.1,0.1,0.1,0.1
		c1.9,2.6,4.5,4.5,7.5,5.5l7.7,2.5l15.3,4.9c5.1,1.6,10.3,3.2,15.4,4.7c5.2,1.5,10.3,2.9,15.7,3.8c0.5,0.1,1.1-0.2,1.3-0.7
		c0.3-0.6,0-1.4-0.6-1.7c-4.9-2.3-10-4.2-15-5.9c-5.1-1.7-10.2-3.4-15.3-5l-15.4-4.8l-7.6-2.4c-2.1-0.7-3.9-2.1-5.2-3.8L535,190.1
		c0,0-0.1-0.1-0.1-0.1c0.2,0,0.4,0,0.6,0c2.1,0,4.1-0.3,6.1-0.9c1.3,2.4,3.5,4.3,6.3,5.2c1.1,0.3,2.2,0.5,3.3,0.5
		c4.6,0,8.9-3,10.3-7.6c0.9-2.8,0.6-5.7-0.7-8.3c-1.3-2.6-3.6-4.5-6.3-5.3c-5.7-1.8-11.8,1.4-13.6,7.1c-0.4,1.3-0.5,2.6-0.5,3.9
		c-2.4,0.7-5,0.9-7.6,0.5c-0.5-2.2-0.4-4.6,0.3-6.8c1.2-3.9,4.4-7.2,8.3-8.5l0.2-0.1l0,0l33-14.1c1.5-0.5,3.2-0.7,4.7-0.5
		c0.9,0.1,1.5,0.3,2.5,0.6l2.8,0.9l11.4,3.6l22.8,7.2l45.5,14.3c0.4,0.1,1,0.3,1.4,0.4c0.4,0.1,0.7,0.3,1.1,0.5
		c0.7,0.3,1.3,0.8,1.9,1.3c1.1,1,2,2.4,2.4,3.9c0.4,1.5,0.4,3.1-0.1,4.6l-1.8,5.7l-7.2,22.8l-7.2,22.8l-0.4,1.4l-0.2,0.7l-0.2,0.5
		c-0.3,0.7-0.7,1.4-1.1,2c-0.9,1.2-2.2,2.2-3.7,2.8c-1.5,0.6-3,0.8-4.6,0.6c-0.7-0.1-1.7-0.3-2.7-0.5c-1-0.2-2-0.4-3-0.5
		c-0.6-0.1-1.2,0.2-1.5,0.8c-0.4,0.7-0.1,1.6,0.6,1.9c0.9,0.5,1.8,0.8,2.7,1.3c0.9,0.4,1.8,0.8,3,1.1c2.3,0.6,4.8,0.5,7.1-0.3
		c2.3-0.8,4.3-2.3,5.8-4.2c0.8-1,1.3-2,1.8-3.2l0.3-0.9l0.2-0.7l0.5-1.4l7.2-22.8l7.2-22.8l1.8-5.7
		C676.1,191.4,676.2,188.9,675.5,186.6z M556.6,181.1c0.8,1.4,0.9,3.1,0.4,4.7c-1,3.2-4.5,5-7.7,4c-1.4-0.4-2.5-1.4-3.3-2.6
		c3.5-1.9,6.4-4.8,8.3-8.4C555.3,179.3,556,180.1,556.6,181.1z M548.3,178.5c0.3-0.1,0.6-0.2,0.9-0.3c-1.1,1.5-2.4,2.8-3.9,3.9
		C545.8,180.5,546.9,179.3,548.3,178.5z"/>
</g>
<g>
	<g>
		<g>
			<path class="st10" d="M386.7,442.8c-24,0-46.8-10.3-62.7-28.3c-13.5-15.2-20.9-34.9-20.9-55.2c0-46.1,37.5-83.5,83.5-83.5
				c46.1,0,83.5,37.5,83.5,83.5c0,20.4-7.4,40-20.9,55.2C433.6,432.5,410.7,442.8,386.7,442.8z"/>
		</g>
		<g>
			<path class="st7" d="M386.7,436.2c-22.1,0-43.1-9.5-57.7-26.1c-12.4-14-19.2-32.1-19.2-50.8c0-42.4,34.5-76.9,76.9-76.9
				c42.4,0,76.9,34.5,76.9,76.9c0,18.7-6.8,36.8-19.2,50.8C429.8,426.7,408.8,436.2,386.7,436.2z"/>
		</g>
		<path class="st8" d="M456.7,359.3c0,16.2-5.5,31.1-14.7,42.9c-12.8-16.4-32.8-27-55.2-27c-22.4,0-42.4,10.6-55.2,27
			c-9.2-11.9-14.7-26.7-14.7-42.9c0-38.6,31.3-69.9,69.9-69.9C425.4,289.4,456.7,320.7,456.7,359.3z"/>
		<g>
			<circle class="st7" cx="386.8" cy="336" r="23.3"/>
		</g>
	</g>
	<g>
		<path class="st9" d="M386.8,363.4c15.1,0,27.4-12.3,27.4-27.4c0-15.1-12.3-27.4-27.4-27.4c-15.1,0-27.4,12.3-27.4,27.4
			C359.3,351.1,371.6,363.4,386.8,363.4z M367.6,336c0-10.6,8.6-19.2,19.2-19.2c10.6,0,19.2,8.6,19.2,19.2
			c0,10.6-8.6,19.2-19.2,19.2C376.2,355.2,367.6,346.6,367.6,336z"/>
		<path class="st9" d="M441.9,400.7c-5.5-9.2-13.9-17.1-23.6-22.1c-9.7-5.1-20.6-7.8-31.5-7.8c-0.1,0-0.2,0-0.3,0
			c-10.9,0-21.9,2.8-31.8,8c-5.1,2.7-9.7,5.9-13.5,9.4c-2.3,2-4.2,4.3-5.6,6c-0.7,0.9-1.4,1.8-2,2.7l-0.5,0.6
			c-0.8,1.1-1.5,2.1-2.2,3.2l-0.1,0.1c-0.7,1.1-0.6,2.5,0.3,3.5c0.6,0.6,1.3,0.9,2.1,0.9c0.7,0,1.4-0.2,1.9-0.8
			c0.7-0.7,1.4-1.4,2.1-2.1l0.7-0.7c0.5-0.4,0.9-0.9,1.4-1.3c0.4-0.4,0.9-0.9,1.3-1.3c1.6-1.5,3.4-3.1,5.6-4.8
			c4.1-3.3,8.1-5.9,12.2-8c8.5-4.3,18.1-6.6,28-6.7c0.1,0,0.3,0,0.4,0c9.7,0,19.3,2.2,27.7,6.3c4.3,2.1,8.5,4.7,12.4,7.7
			c3.5,2.6,6.9,5.8,11.1,10.1c0.8,0.8,2,1,3,0.4C442.2,403.5,442.6,402,441.9,400.7z M331.7,401.5L331.7,401.5L331.7,401.5
			L331.7,401.5z"/>
	</g>
</g>
<g>
	<path class="st6" d="M554.1,506c-0.3-3.5,1-6.7,2.8-9.5c0.8-1.5,1.8-2.8,2.7-4.2c1.1-1.3,2-2.7,3.2-3.8c2.2-2.5,4.8-4.6,7.4-6.6
		c2.7-1.8,5.6-3.6,8.6-4.9c12.1-5.4,26.3-5.8,38.7-1.4c6.2,2.2,12.1,5.7,16.9,10.3c4.9,4.6,8.8,10.2,11.2,16.4
		c1.3,3.1,2,6.4,2.5,9.7c0.3,1.7,0.2,3.3,0.4,5c0,1.6,0,3.2,0,4.8l0,19l0,19c0,0.9,0,1.4-0.1,2.7c-0.1,1.1-0.5,2.2-1,3.2
		c-1.1,1.9-2.9,3.4-4.8,4.1c-1,0.4-2,0.6-3.1,0.6c-1,0-1.6,0-2.5,0l-4.7,0l-37.9,0l-19,0l-9.5,0l-4.7,0c-0.7,0-1.9,0-2.9-0.2
		c-1-0.2-2-0.6-2.9-1.2c-1.8-1.1-3.3-2.8-4-5c-0.2-0.5-0.3-1.1-0.4-1.6l-0.1-0.8l0-0.6l0-2.4l-0.2-9.5c-0.1-3.2,0-6.3,0.1-9.5
		c0.1-3.2,0.4-6.3,1.5-9.5c0.2-0.6,0.9-1,1.5-0.7c0.4,0.1,0.6,0.4,0.7,0.7c1.1,3.2,1.4,6.3,1.5,9.5c0.1,3.2,0.1,6.3,0.1,9.5
		l-0.2,9.5l0,2.4l0,0.6l0,0.3c0,0.2,0.1,0.5,0.1,0.7c0.3,0.9,0.9,1.7,1.8,2.2c0.4,0.3,0.9,0.5,1.5,0.6c0.6,0.1,0.9,0.1,1.8,0.1
		l4.7,0l9.5,0l19,0l37.9,0l4.7,0c0.7,0,1.7,0,2.3,0c0.5,0,1.1-0.1,1.5-0.3c1-0.4,1.8-1.1,2.3-1.9c0.2-0.4,0.4-0.9,0.4-1.3
		c0-0.3,0-1.3,0-2.1l0-19l0-19c0-1.6,0-3.2,0-4.7c-0.1-1.5-0.1-3-0.3-4.4c-0.4-2.9-1.1-5.8-2.2-8.6c-2.1-5.5-5.6-10.6-9.9-14.7
		c-4.3-4.1-9.6-7.2-15.2-9.3c-11.3-4.1-24.2-3.8-35.2,1.1c-2.8,1.1-5.4,2.7-7.9,4.4c-2.4,1.8-4.8,3.7-6.7,5.9
		c-1.1,1.1-1.9,2.3-2.9,3.4c-0.8,1.2-1.7,2.4-2.4,3.8l-1.1,2c-0.3,0.7-0.6,1.3-1,2c-0.8,1.3-1.4,2.6-2.7,3.9l-0.1,0.1
		c-0.4,0.4-1.1,0.4-1.5,0C554.3,506.5,554.2,506.3,554.1,506z"/>
	<path class="st11" d="M649.4,563.2h-5.8v-42c0-12.1-4.9-23-12.8-30.9c-7.9-7.9-18.8-12.8-30.9-12.8c-7.1,0-13.8,1.7-19.7,4.7
		c-14.3,7.2-24,22-24,39v42h-1h-4.8c-5.8,0-10.6,4.7-10.6,10.6v0c0,5.8,4.7,10.6,10.6,10.6H588c1.8,4.8,6.4,9.8,11.8,9.8
		s10-5,11.8-9.8h37.8c5.8,0,10.6-4.7,10.6-10.6v0C659.9,567.9,655.2,563.2,649.4,563.2z"/>
	<g>
		<g>
			<circle class="st12" cx="599.8" cy="471.6" r="7.1"/>
		</g>
		<path class="st6" d="M553.9,521.9c-0.1-0.4-0.1-0.9,0.1-1.4c0.1-0.5,0.3-0.9,0.6-1.4c0.5-0.8,1.6-1,2.4-0.5
			c0.2,0.1,0.4,0.3,0.5,0.5l0.1,0.1c0.3,0.4,0.5,0.9,0.6,1.3c0.1,0.4,0.2,0.9,0.1,1.3c-0.4,1.2-1.7,1.9-2.9,1.5
			C554.7,523.2,554.1,522.7,553.9,521.9L553.9,521.9z M569.8,563c-0.1,0.7,0.3,1.4,1,1.5c5.3,1,10.5,0.8,15.8,0.9l15.8,0.1l31.6,0
			l15.7,0c2.1,0.1,4.1,1,5.6,2.5c1.5,1.5,2.4,3.6,2.4,5.7c0.1,2.1-0.7,4.2-2.1,5.8c-1.4,1.6-3.4,2.6-5.4,2.8l-0.8,0l-1,0l-2,0l-4,0
			l-7.9,0l-63.2,0l-15.8,0l-4,0c-1.4,0-2.4,0-3.4-0.2c-2-0.5-3.9-1.8-5.1-3.5c-1.2-1.7-1.6-4-1.3-6c0.3-2.1,1.5-4,3.1-5.3
			c0.8-0.7,1.8-1.2,2.8-1.5c0.5-0.2,1-0.2,1.6-0.3l0.8,0l1,0c2.6-0.1,5.3,0.3,7.9-0.8c0.3-0.1,0.6-0.4,0.7-0.7
			c0.3-0.7-0.1-1.5-0.7-1.8c-2.6-1.1-5.3-0.8-7.9-0.8l-1,0l-1.2,0.1c-0.8,0.1-1.6,0.2-2.3,0.5c-1.5,0.4-2.9,1.2-4.2,2.2
			c-2.5,1.9-4.2,4.8-4.7,7.9c-0.5,3.1,0.2,6.4,1.9,9.1c1.7,2.6,4.5,4.6,7.6,5.3c1.5,0.4,3.2,0.4,4.4,0.4l4,0l15.8,0l63.2,0l7.9,0
			l4,0l2,0l1,0l1.2-0.1c3.2-0.3,6.2-1.9,8.2-4.3c2.1-2.4,3.2-5.6,3.1-8.7c-0.1-3.2-1.4-6.3-3.6-8.5c-2.2-2.3-5.3-3.6-8.5-3.8
			l-15.9-0.1l-31.6,0l-15.8,0.1c-5.3,0.1-10.5-0.1-15.8,0.9C570.3,562,569.9,562.4,569.8,563z"/>
		<g>
			<circle class="st13" cx="628.1" cy="482.2" r="19.4"/>
		</g>
		<path class="st5" d="M628.7,472.2h-0.8c-0.4,0-0.8,0.1-1.2,0.3l-3,1.5c-1.1,0.5-1.7,1.7-1.4,2.9l0.3,1.4c0.1,0.3,0.3,0.5,0.5,0.6
			c0.3,0.1,0.6,0.1,0.8,0l2.1-1.1V490c0,1.5,1.2,2.6,2.6,2.6c1.5,0,2.6-1.2,2.6-2.6v-15.1C631.3,473.4,630.2,472.2,628.7,472.2z"/>
	</g>
	<path class="st9" d="M628.1,460.5c-8.4,0-15.7,4.8-19.3,11.8c0-0.2,0.1-0.4,0.1-0.6c0-5-4-9-9-9s-9,4-9,9c0,5,4,9,9,9
		c2.9,0,5.5-1.4,7.2-3.6c-0.4,1.7-0.6,3.4-0.6,5.1c0,12,9.7,21.7,21.7,21.7s21.7-9.7,21.7-21.7S640,460.5,628.1,460.5z M599.8,476.8
		c-2.8,0-5.1-2.3-5.1-5.1c0-2.8,2.3-5.1,5.1-5.1c2.8,0,5.1,2.3,5.1,5.1C605,474.5,602.7,476.8,599.8,476.8z M628.1,499.2
		c-9.4,0-17-7.6-17-17s7.6-17,17-17s17,7.6,17,17S637.4,499.2,628.1,499.2z"/>
</g>
</svg>
